<svg width="2941" height="1264" viewBox="0 0 2941 1264" fill="none" xmlns="http://www.w3.org/2000/svg">
<path d="M2730 516C2732.39 518.211 2734.05 520.841 2735.81 523.562C2736.33 524.336 2736.85 525.109 2737.39 525.907C2738.95 528.255 2740.48 530.623 2742 533C2742.42 533.65 2742.84 534.301 2743.28 534.971C2764.24 567.444 2775.69 605.821 2767.49 644.382C2762.75 664.91 2753.58 684.122 2741 701C2740.57 701.585 2740.13 702.171 2739.69 702.774C2733.02 711.708 2725.73 719.976 2718 728C2717.5 728.523 2717 729.047 2716.48 729.587C2710.55 735.749 2704.46 741.478 2697.75 746.804C2694.93 749.059 2692.19 751.399 2689.44 753.75C2618.89 812.556 2528.09 848.34 2440 880C2438.77 880.444 2438.77 880.444 2437.51 880.898C2346.17 913.793 2252.04 939.076 2043 986C2041.16 986.375 2041.16 986.375 2039.27 986.758C1965.73 1001.71 1891.73 1014.68 1817.5 1025.75C1816.64 1025.88 1815.79 1026.01 1814.91 1026.14C1812.57 1026.49 1810.24 1026.83 1807.91 1027.17C1806.63 1027.36 1805.36 1027.54 1804.04 1027.74C1801 1028 1801 1028 1798 1027C1801.83 1025.67 1805.6 1024.57 1809.57 1023.74C1810.65 1023.51 1811.74 1023.28 1812.85 1023.05C1814.03 1022.8 1815.2 1022.56 1816.41 1022.3C1818.33 1021.9 1820.25 1021.49 1822.17 1021.09C1824.22 1020.65 1826.28 1020.22 1828.34 1019.78C1916.31 1001.18 2003.58 979.431 2100 948C2101.25 947.588 2101.25 947.588 2102.53 947.168C2151.76 930.952 2200.16 912.246 2247 890C2248.04 889.511 2249.08 889.021 2250.15 888.517C2273.74 877.404 2296.6 865.366 2319 852C2319.81 851.522 2320.62 851.044 2321.45 850.552C2346.74 835.574 2370.96 818.475 2393 799C2393.94 798.168 2394.88 797.337 2395.86 796.48C2408.41 785.183 2420.71 773.421 2431 760C2431.78 759.034 2432.56 758.069 2433.37 757.074C2458.95 725.281 2476.43 683.577 2472.54 642.207C2470.64 626.013 2466.7 608.582 2457.88 594.664C2457 593 2457 593 2457 590C2457.91 589.75 2458.81 589.501 2459.74 589.243C2504.03 577.037 2548.32 564.815 2592.58 552.539C2596.84 551.359 2601.09 550.179 2605.35 549C2606.2 548.764 2607.05 548.528 2607.93 548.285C2622.95 544.12 2637.97 539.965 2653 535.812C2655.19 535.205 2657.39 534.599 2659.58 533.992C2669.21 531.33 2678.84 528.668 2688.47 526.009C2692.41 524.921 2696.35 523.833 2700.28 522.744C2702.12 522.236 2703.96 521.728 2705.8 521.221C2708.32 520.526 2710.83 519.831 2713.35 519.135C2714.09 518.932 2714.82 518.728 2715.58 518.519C2726.69 515.443 2726.69 515.443 2730 516Z" fill="white"/>
<path d="M2392.53 331.105C2393.54 331.421 2394.55 331.736 2395.6 332.061C2398.9 333.095 2402.2 334.14 2405.5 335.187C2406.64 335.546 2407.77 335.905 2408.94 336.275C2454.86 350.796 2500.05 367.25 2544 387C2545.09 387.489 2546.18 387.977 2547.31 388.481C2588.68 407.071 2629.42 428.016 2666 455C2667.04 455.752 2668.07 456.505 2669.14 457.281C2683.95 468.201 2699.25 479.739 2711 494C2675.8 504.218 2640.59 514.419 2605.36 524.551C2601.93 525.538 2598.5 526.525 2595.07 527.511C2594.36 527.715 2593.65 527.919 2592.92 528.128C2578.52 532.272 2564.12 536.426 2549.71 540.582C2548.56 540.914 2547.41 541.247 2546.22 541.589C2535.74 544.613 2525.26 547.637 2514.79 550.661C2513.67 550.982 2512.56 551.303 2511.42 551.633C2509.21 552.271 2507 552.908 2504.79 553.546C2499.51 555.07 2494.23 556.593 2488.95 558.111C2486.96 558.684 2484.97 559.257 2482.98 559.829C2482.03 560.103 2481.08 560.376 2480.1 560.658C2475.06 562.111 2470.02 563.579 2464.99 565.072C2462.95 565.679 2460.9 566.281 2458.86 566.882C2456.53 567.569 2454.19 568.265 2451.87 568.973C2450.88 569.262 2449.89 569.552 2448.87 569.851C2448.04 570.1 2447.21 570.349 2446.35 570.606C2443.58 571.069 2441.68 570.796 2439 570C2436.71 568.031 2436.71 568.031 2434.38 565.5C2429.25 560.169 2423.78 555.594 2418 551C2416.88 550.077 2415.76 549.152 2414.64 548.226C2405.58 540.785 2396.13 534.1 2386.38 527.593C2384.09 526.061 2381.81 524.516 2379.53 522.968C2315.28 479.527 2245.1 445.547 2172 420C2172 419.01 2172 418.02 2172 417C2173.02 416.554 2174.04 416.108 2175.1 415.649C2194.79 407.055 2214.44 398.39 2234 389.5C2247.79 383.232 2261.62 377.063 2275.5 371C2288.59 365.28 2301.65 359.481 2314.66 353.578C2317.29 352.386 2319.92 351.197 2322.55 350.008C2330.31 346.497 2338.07 342.974 2345.8 339.394C2349.12 337.862 2352.44 336.345 2355.77 334.831C2357.32 334.119 2358.87 333.4 2360.42 332.674C2362.54 331.676 2364.68 330.703 2366.82 329.734C2367.74 329.292 2367.74 329.292 2368.68 328.841C2376.75 325.262 2384.6 328.59 2392.53 331.105Z" fill="white"/>
<path d="M1853.45 241.991C1854.55 242.046 1855.65 242.102 1856.79 242.158C1858.68 242.25 1858.68 242.25 1860.61 242.343C1862.02 242.417 1863.43 242.492 1864.84 242.566C1866.32 242.641 1867.8 242.716 1869.27 242.79C1873.32 242.996 1877.36 243.21 1881.4 243.426C1883.94 243.562 1886.47 243.697 1889.01 243.831C1915.44 245.233 1941.85 246.936 1968.25 248.87C1970.84 249.06 1973.43 249.248 1976.02 249.437C2007.19 251.711 2038.12 254.553 2069 259.5C2070.38 259.718 2071.75 259.936 2073.13 260.154C2151.8 272.623 2229.68 288.188 2307 307.375C2308.46 307.737 2308.46 307.737 2309.96 308.106C2323.1 311.363 2336.07 314.998 2349 319C2347.39 322.224 2344 322.93 2340.81 324.281C2340.06 324.607 2339.31 324.932 2338.53 325.267C2336.02 326.351 2333.51 327.425 2331 328.5C2329.23 329.262 2327.46 330.025 2325.7 330.789C2322.93 331.983 2320.17 333.177 2317.41 334.368C2308.6 338.164 2299.82 342.017 2291.04 345.881C2276.87 352.117 2262.69 358.321 2248.5 364.5C2236.05 369.919 2223.62 375.354 2211.19 380.813C2208.64 381.93 2206.1 383.044 2203.55 384.157C2195.5 387.682 2187.46 391.232 2179.46 394.867C2175.7 396.574 2171.93 398.267 2168.16 399.959C2166.36 400.77 2164.57 401.588 2162.78 402.413C2160.3 403.557 2157.8 404.677 2155.31 405.793C2154.58 406.135 2153.86 406.476 2153.11 406.828C2144.51 410.611 2136.65 407.522 2128.01 405.113C2125.78 404.505 2123.56 403.898 2121.34 403.291C2120.17 402.969 2118.99 402.647 2117.79 402.315C2040.45 381.135 1962.06 364.393 1762 334C1759.66 333.694 1757.31 333.388 1754.97 333.082C1749.64 332.387 1744.32 331.693 1739 331C1740.08 327.76 1740.57 327.299 1743.18 325.355C1743.85 324.851 1744.53 324.346 1745.22 323.825C1745.95 323.285 1746.68 322.744 1747.44 322.187C1748.99 321.019 1750.55 319.85 1752.11 318.68C1752.91 318.075 1753.72 317.47 1754.55 316.847C1758.49 313.879 1762.37 310.846 1766.25 307.812C1771.32 303.859 1776.4 299.915 1781.5 296C1786.68 292.021 1791.84 288.015 1797 284C1805.33 277.518 1813.68 271.079 1822.05 264.656C1828.63 259.602 1835.2 254.527 1841.75 249.437C1842.55 248.817 1843.35 248.197 1844.17 247.558C1844.91 246.98 1845.66 246.403 1846.42 245.809C1847.09 245.291 1847.75 244.773 1848.44 244.24C1851.26 241.999 1851.26 241.999 1853.45 241.991Z" fill="white"/>
<path d="M1768.4 238.398C1770.67 238.466 1772.94 238.533 1775.22 238.6C1781.71 238.79 1788.2 238.985 1794.69 239.187C1796.68 239.249 1798.67 239.31 1800.66 239.369C1803.41 239.451 1806.16 239.538 1808.91 239.627C1809.7 239.649 1810.5 239.672 1811.31 239.696C1816.58 239.872 1821.76 240.365 1827 241C1823.64 244.487 1820.18 247.521 1816.31 250.437C1815.16 251.314 1814 252.192 1812.85 253.07C1812.23 253.539 1811.61 254.009 1810.97 254.493C1807.38 257.239 1803.82 260.029 1800.25 262.812C1792.18 269.097 1784.07 275.316 1775.94 281.52C1770.95 285.332 1765.98 289.168 1761 293C1759.38 294.247 1757.76 295.495 1756.14 296.742C1755.04 297.581 1753.95 298.42 1752.86 299.259C1750.22 301.294 1747.57 303.327 1744.93 305.359C1743.9 306.148 1742.87 306.937 1741.81 307.75C1741.04 308.343 1741.04 308.343 1740.25 308.949C1736.91 311.521 1733.57 314.109 1730.25 316.707C1729.43 317.344 1728.62 317.982 1727.77 318.639C1726.15 319.905 1724.53 321.173 1722.92 322.442C1722.18 323.019 1721.44 323.596 1720.68 324.191C1720.01 324.709 1719.35 325.226 1718.67 325.76C1715.1 328.41 1712.75 327.98 1708.35 327.653C1707.69 327.604 1707.02 327.555 1706.33 327.504C1699.69 327.005 1693.06 326.391 1686.44 325.75C1682.68 325.387 1678.93 325.032 1675.17 324.677C1674.38 324.602 1673.59 324.526 1672.77 324.449C1595.07 317.079 1517.25 312.148 1368.5 307.29C1357.65 307.109 1346.83 306.635 1336 306C1338.11 302.4 1340.28 299.427 1343.12 296.375C1346.37 292.835 1349.48 289.237 1352.5 285.5C1356.11 281.037 1359.88 276.772 1363.75 272.531C1366.08 269.911 1368.3 267.224 1370.5 264.5C1374.16 259.984 1377.94 255.632 1381.89 251.367C1384.01 249.056 1384.01 249.056 1385.77 246.632C1389.82 241.299 1389.82 241.299 1393.11 240.463C1393.89 240.414 1394.67 240.366 1395.47 240.316C1396.36 240.256 1397.24 240.195 1398.16 240.133C1399.09 240.089 1400.03 240.045 1401 240C1402.39 239.927 1402.39 239.927 1403.82 239.853C1406.89 239.711 1409.96 239.602 1413.04 239.5C1414.75 239.439 1414.75 239.439 1416.5 239.378C1420.21 239.248 1423.92 239.123 1427.62 239C1428.91 238.956 1430.19 238.912 1431.51 238.868C1453.67 238.115 1475.83 237.426 1498 237C1499.12 236.978 1500.23 236.956 1501.38 236.933C1582.34 235.357 1663.33 235.443 1768.4 238.398Z" fill="#FBDC05"/>
<path d="M1558 517C1571.53 517 1585.06 517 1599 517C1598.93 520.914 1598.85 524.827 1598.78 528.86C1598.68 534.156 1598.59 539.453 1598.5 544.75C1598.49 545.432 1598.48 546.114 1598.46 546.816C1598.08 568.879 1597.85 590.934 1598 613C1611.12 586.982 1611.12 586.982 1623.83 560.763C1630.77 546.119 1637.91 531.572 1645 517C1657.87 517 1670.74 517 1684 517C1685.12 523.75 1685.12 523.75 1685.35 527.176C1685.43 528.337 1685.43 528.337 1685.5 529.522C1685.56 530.351 1685.61 531.18 1685.66 532.035C1685.72 532.923 1685.78 533.812 1685.84 534.727C1686.03 537.649 1686.22 540.571 1686.41 543.492C1686.54 545.524 1686.68 547.556 1686.81 549.587C1687.16 554.924 1687.5 560.26 1687.85 565.596C1688.2 571.046 1688.56 576.496 1688.92 581.946C1689.61 592.63 1690.31 603.315 1691 614C1702.63 585.711 1702.63 585.711 1714.16 557.383C1715.06 555.166 1715.96 552.95 1716.86 550.734C1720.55 541.609 1724.23 532.477 1727.83 523.314C1729.89 518.108 1729.89 518.108 1731 517C1734.1 516.911 1737.18 516.885 1740.28 516.903C1741.22 516.904 1742.15 516.905 1743.1 516.907C1746.09 516.912 1749.08 516.925 1752.06 516.938C1754.08 516.943 1756.1 516.947 1758.12 516.951C1763.08 516.962 1768.04 516.98 1773 517C1770.8 523.943 1768.15 530.582 1765.26 537.266C1764.57 538.894 1764.57 538.894 1763.85 540.556C1762.32 544.122 1760.79 547.686 1759.25 551.25C1758.44 553.127 1757.64 555.004 1756.83 556.881C1748.88 575.383 1740.87 593.858 1732.83 612.324C1724.79 630.804 1716.87 649.332 1709.03 667.899C1708.63 668.846 1708.23 669.792 1707.81 670.768C1707.06 672.536 1706.32 674.304 1705.57 676.074C1703.11 681.888 1703.11 681.888 1702 683C1700.62 683.093 1699.23 683.118 1697.85 683.114C1696.97 683.114 1696.08 683.114 1695.18 683.114C1694.22 683.108 1693.26 683.103 1692.28 683.098C1691.3 683.096 1690.33 683.095 1689.32 683.094C1686.19 683.088 1683.06 683.075 1679.94 683.063C1677.82 683.058 1675.71 683.053 1673.59 683.049C1668.39 683.038 1663.2 683.021 1658 683C1657.34 672.212 1656.69 661.423 1656.04 650.633C1655.74 645.621 1655.44 640.61 1655.14 635.599C1654.84 630.749 1654.55 625.899 1654.26 621.049C1654.15 619.212 1654.04 617.376 1653.93 615.539C1653.21 604.009 1652.85 592.552 1653 581C1652.34 581 1651.68 581 1651 581C1650.62 582.256 1650.24 583.511 1649.84 584.805C1647.93 590.528 1645.26 595.77 1642.5 601.125C1641.41 603.277 1640.32 605.429 1639.23 607.582C1638.68 608.662 1638.14 609.742 1637.57 610.854C1635.26 615.478 1633.03 620.141 1630.81 624.813C1627.48 631.838 1624.11 638.847 1620.71 645.84C1620.33 646.614 1619.95 647.389 1619.56 648.186C1617.69 652.044 1615.81 655.901 1613.92 659.757C1613.22 661.198 1612.52 662.638 1611.82 664.078C1611.51 664.714 1611.2 665.35 1610.88 666.005C1608.14 671.627 1605.59 677.301 1603 683C1588.48 683 1573.96 683 1559 683C1558.83 670.146 1558.66 657.292 1558.5 644.438C1558.49 643.472 1558.48 642.506 1558.46 641.511C1558.1 611.361 1557.91 581.215 1557.94 551.063C1557.94 550.193 1557.94 549.322 1557.94 548.426C1557.95 537.951 1557.97 527.475 1558 517Z" fill="white"/>
<path d="M1369 242C1368.06 243.264 1367.12 244.526 1366.18 245.788C1365.39 246.843 1365.39 246.843 1364.59 247.919C1362.28 250.945 1359.81 253.818 1357.31 256.688C1356.26 257.91 1355.2 259.133 1354.14 260.356C1353.62 260.964 1353.09 261.573 1352.55 262.201C1350.18 264.951 1347.84 267.725 1345.5 270.5C1342.16 274.462 1338.8 278.406 1335.42 282.335C1325.98 292.804 1325.98 292.804 1317.68 304.113C1316 306 1316 306 1313.81 306.502C1312.95 306.503 1312.09 306.504 1311.2 306.506C1310.21 306.517 1309.22 306.528 1308.2 306.539C1307.11 306.531 1306.03 306.523 1304.9 306.514C1303.18 306.525 1303.18 306.525 1301.41 306.536C1297.56 306.556 1293.71 306.547 1289.86 306.539C1287.15 306.546 1284.43 306.559 1281.72 306.572C1275.93 306.598 1270.15 306.61 1264.36 306.614C1255.3 306.621 1246.23 306.658 1237.17 306.704C1236.05 306.709 1236.05 306.709 1234.9 306.715C1231.13 306.734 1227.36 306.754 1223.59 306.774C1220.58 306.789 1217.57 306.804 1214.56 306.818C1190.18 306.932 1165.81 307.215 1141.44 307.875C1140.27 307.906 1140.27 307.906 1139.09 307.938C1093.62 309.163 1048.13 310.918 1002.71 313.441C1001.66 313.499 1001.66 313.499 1000.59 313.558C998.792 313.658 996.996 313.761 995.2 313.864C991.797 314.009 988.406 314.023 985 314C986.559 308.91 989.696 305.434 993.062 301.438C994.249 300.004 995.434 298.569 996.617 297.133C997.197 296.429 997.777 295.726 998.374 295.001C1000.55 292.321 1002.63 289.583 1004.69 286.813C1005.36 285.931 1006.03 285.049 1006.72 284.14C1009.04 281.033 1009.04 281.033 1011 277.694C1014.2 272.581 1016.98 268.782 1022.73 266.559C1027.23 265.6 1031.77 265.31 1036.34 265.008C1038.08 264.849 1039.81 264.685 1041.54 264.516C1046.21 264.075 1050.89 263.708 1055.57 263.354C1060.53 262.967 1065.48 262.511 1070.44 262.063C1078.63 261.331 1086.83 260.64 1095.02 259.979C1105.18 259.16 1115.33 258.266 1125.47 257.337C1188.16 251.604 1250.97 247.318 1313.81 243.757C1316.08 243.627 1318.36 243.497 1320.63 243.365C1336.76 242.439 1352.84 241.734 1369 242Z" fill="#FBDC05"/>
<path d="M1599 758C1604.46 757.802 1609.92 757.657 1615.39 757.561C1617.25 757.521 1619.1 757.466 1620.96 757.397C1623.63 757.299 1626.3 757.254 1628.98 757.219C1629.81 757.178 1630.64 757.136 1631.49 757.094C1633.9 757.092 1635.73 757.194 1638 758C1640.29 760.38 1641.61 763.025 1643 766C1643.58 767.063 1644.16 768.126 1644.75 769.221C1645.28 770.254 1645.81 771.287 1646.35 772.352C1646.95 773.521 1647.54 774.689 1648.16 775.894C1648.47 776.502 1648.78 777.11 1649.1 777.736C1654.34 788.01 1659.69 798.198 1665.28 808.287C1668.42 814.007 1671.45 819.779 1674.42 825.59C1674.8 826.339 1675.18 827.089 1675.58 827.861C1677.5 831.61 1679.4 835.364 1681.3 839.122C1682 840.502 1682.71 841.882 1683.41 843.262C1683.73 843.898 1684.05 844.535 1684.37 845.191C1686.01 848.381 1687.42 850.422 1690 853C1696.6 821.65 1703.2 790.3 1710 758C1722.87 758 1735.74 758 1749 758C1748.4 763.399 1747.83 768.314 1746.72 773.551C1746.47 774.776 1746.21 776.001 1745.94 777.263C1745.66 778.592 1745.37 779.921 1745.09 781.25C1744.79 782.671 1744.49 784.093 1744.19 785.515C1743.37 789.355 1742.56 793.194 1741.74 797.032C1740.88 801.065 1740.02 805.099 1739.17 809.132C1737.73 815.906 1736.29 822.68 1734.84 829.453C1733.18 837.259 1731.52 845.067 1729.87 852.876C1728.27 860.414 1726.67 867.951 1725.06 875.488C1724.38 878.683 1723.71 881.878 1723.03 885.074C1722.23 888.845 1721.42 892.616 1720.62 896.386C1720.33 897.762 1720.03 899.137 1719.74 900.513C1719.34 902.408 1718.94 904.302 1718.53 906.195C1718.31 907.25 1718.08 908.305 1717.85 909.392C1716.7 914.293 1715.33 919.142 1714 924C1701.79 924 1689.58 924 1677 924C1675.74 921.55 1674.49 919.099 1673.2 916.574C1662.48 895.63 1662.48 895.63 1651.58 874.783C1647.99 868.002 1644.46 861.189 1640.94 854.375C1635.68 844.22 1630.38 834.091 1625 824C1621.1 841.267 1617.29 858.553 1613.61 875.867C1613.46 876.553 1613.32 877.239 1613.17 877.946C1611.69 884.904 1610.21 891.863 1608.74 898.823C1608.31 900.825 1607.89 902.827 1607.47 904.829C1606.94 907.312 1606.41 909.796 1605.89 912.28C1605.66 913.386 1605.42 914.492 1605.18 915.631C1604.87 917.084 1604.87 917.084 1604.56 918.566C1604 921 1604 921 1603 924C1590.13 924 1577.26 924 1564 924C1566.25 910.5 1566.25 910.5 1567.36 905.292C1567.61 904.108 1567.86 902.923 1568.12 901.703C1568.39 900.449 1568.66 899.194 1568.93 897.901C1569.22 896.531 1569.52 895.161 1569.81 893.791C1570.59 890.107 1571.38 886.423 1572.16 882.74C1572.99 878.861 1573.81 874.982 1574.64 871.103C1576.03 864.59 1577.41 858.079 1578.8 851.567C1580.4 844.071 1582 836.574 1583.6 829.076C1585.3 821.05 1587.01 813.025 1588.72 804.999C1589.21 802.706 1589.7 800.413 1590.19 798.12C1590.96 794.498 1591.73 790.876 1592.51 787.254C1592.92 785.313 1593.33 783.373 1593.75 781.432C1595.42 773.603 1597.18 765.796 1599 758Z" fill="white"/>
<path d="M1532 771C1548.54 784.317 1557.72 801.041 1561.75 821.875C1561.87 823.248 1561.94 824.624 1562 826C1562.05 827.136 1562.1 828.272 1562.16 829.442C1562.79 856.367 1553.78 879.726 1535.41 899.547C1518.45 917.078 1494.99 926.652 1470.8 927.281C1448.3 927.552 1426.94 921.051 1410.3 905.389C1394.14 889.532 1386.88 870.123 1386.56 847.688C1386.68 823.396 1395.98 802.127 1412 784C1412.83 783.047 1412.83 783.047 1413.67 782.074C1443.01 750.483 1497.64 744.965 1532 771ZM1444.12 806.938C1433.05 818.8 1428.41 833.142 1428.7 849.156C1429.63 860.936 1434.34 870.801 1443.02 878.875C1444.95 880.396 1446.9 881.716 1449 883C1449.57 883.388 1450.13 883.776 1450.72 884.176C1459.32 889.362 1471.92 890.03 1481.48 887.754C1494.87 883.744 1505.28 876.23 1512.73 864.215C1519.93 850.755 1522.09 836.685 1518.05 821.93C1516.35 817.181 1513.86 813.134 1511 809C1510.4 808.093 1509.8 807.185 1509.19 806.25C1501.15 797.985 1490.48 793.53 1479.06 792.977C1465.62 793.08 1453.98 797.883 1444.12 806.938Z" fill="white"/>
<path d="M817.102 772.472C833.083 786.216 843.533 804.493 845.212 825.665C846.559 853.193 838.428 877.416 820.001 898C819.45 898.633 818.9 899.266 818.333 899.918C803.913 915.477 780.792 925.971 759.723 927.125C733.98 927.941 712.936 922.267 693.188 905.125C678.491 891.272 670.663 871.947 669.88 851.902C669.377 825.223 678.214 801.919 696.488 782.539C727.636 750.839 781.475 744.069 817.102 772.472ZM727.325 807.547C716.671 818.792 711.384 832.667 711.755 848.144C712.863 861.002 717.956 871.112 727.739 879.488C737.111 887.057 747.005 889.454 758.938 888.851C773.087 887.158 784.197 879.901 793.001 869C801.747 855.827 805.249 841.189 802.352 825.484C798.884 812.976 791.755 803.707 780.563 797.25C762.152 788.645 741.648 793.966 727.325 807.547Z" fill="white"/>
<path d="M1194.62 532.094C1207.96 543.609 1217.61 558.554 1221 576C1221.27 577.313 1221.27 577.313 1221.55 578.653C1224.83 603.067 1219.41 627.869 1204.87 647.946C1202.66 650.711 1200.37 653.369 1198 656C1197.33 656.77 1196.65 657.539 1195.95 658.332C1180.36 675.069 1157.23 685.236 1134.5 686.344C1109.81 687.005 1087.79 680.48 1069.36 663.541C1055.93 650.484 1048.04 631.564 1047 613C1046.95 612.157 1046.9 611.314 1046.84 610.446C1046.09 586.77 1054.12 563.655 1070 546C1070.43 545.522 1070.86 545.044 1071.3 544.551C1102.54 510.236 1157.55 502.435 1194.62 532.094ZM1118 557C1116.7 557.671 1116.7 557.671 1115.37 558.356C1102.65 565.447 1094.89 576.404 1090.71 590.285C1089.86 593.544 1089.26 596.638 1089 600C1088.95 600.649 1088.9 601.297 1088.85 601.965C1088.36 613.128 1091.63 622.943 1098 632C1098.6 632.908 1099.2 633.815 1099.81 634.75C1108.37 643.549 1119.34 647.57 1131.42 648.094C1144.26 647.758 1155.8 642.726 1165.16 633.961C1176.19 622.204 1180.58 608.087 1180.28 592.211C1179.75 580.791 1175.08 570.973 1166.97 563.004C1156.14 553.885 1144.92 551.736 1131.15 552.757C1126.33 553.303 1122.27 554.772 1118 557Z" fill="white"/>
<path d="M207 517C215.885 516.93 224.77 516.877 233.655 516.845C237.782 516.829 241.91 516.808 246.037 516.774C250.031 516.741 254.025 516.723 258.019 516.715C259.531 516.71 261.044 516.699 262.556 516.683C285.186 516.448 305.679 523.008 322.312 538.688C336.799 554.103 343.679 573.338 343.246 594.496C341.574 618.308 332.651 637.888 316 655C315.416 655.634 314.832 656.268 314.23 656.922C301.094 670.828 278.384 682.214 259.038 683.089C256.741 683.123 254.446 683.124 252.149 683.114C250.846 683.114 250.846 683.114 249.516 683.114C246.659 683.113 243.802 683.106 240.945 683.098C238.958 683.096 236.972 683.094 234.985 683.093C229.767 683.09 224.549 683.08 219.331 683.069C214.002 683.058 208.673 683.054 203.344 683.049C192.896 683.038 182.448 683.021 172 683C173.263 674.205 174.844 665.532 176.718 656.848C176.983 655.604 177.249 654.359 177.522 653.077C178.242 649.702 178.967 646.328 179.692 642.954C180.458 639.386 181.221 635.818 181.983 632.25C183.266 626.253 184.552 620.255 185.839 614.259C187.314 607.387 188.786 600.514 190.256 593.641C191.836 586.25 193.419 578.86 195.002 571.47C195.451 569.377 195.899 567.283 196.347 565.189C199.791 549.101 203.303 533.032 207 517ZM240 554C237.518 565.404 235.04 576.808 232.568 588.214C231.42 593.51 230.271 598.806 229.118 604.101C228.005 609.209 226.897 614.319 225.791 619.429C225.369 621.379 224.944 623.33 224.519 625.28C223.923 628.008 223.333 630.738 222.744 633.468C222.478 634.681 222.478 634.681 222.206 635.918C221.463 639.385 221 642.436 221 646C226.229 646.075 231.457 646.129 236.686 646.165C238.461 646.18 240.236 646.2 242.01 646.226C258.862 646.468 272.231 644.334 285.25 632.438C295.811 621.038 300.765 606.956 300.34 591.516C299.222 579.947 294.679 569.872 285.867 562.125C275.711 554.845 265.56 553.42 253.312 553.75C252.027 553.768 250.741 553.786 249.416 553.805C246.277 553.851 243.139 553.917 240 554Z" fill="white"/>
<path d="M1950 517.001C1961.4 516.931 1972.79 516.878 1984.19 516.845C1989.48 516.829 1994.78 516.808 2000.07 516.774C2005.19 516.741 2010.3 516.724 2015.42 516.716C2017.36 516.71 2019.3 516.7 2021.25 516.683C2038.99 516.541 2054.54 518.32 2068.15 530.954C2078.28 542.174 2081.35 554.322 2081.21 569.114C2080.36 584.653 2072.97 597.478 2061.94 608.126C2057.11 612.294 2051.77 614.869 2046.04 617.555C2042.92 618.947 2042.92 618.947 2040 621.001C2040.29 621.718 2040.57 622.436 2040.87 623.175C2043.56 629.943 2046.25 636.711 2048.94 643.48C2050.33 646.96 2051.71 650.44 2053.1 653.918C2054.44 657.276 2055.77 660.635 2057.1 663.994C2057.61 665.275 2058.12 666.556 2058.63 667.836C2059.35 669.631 2060.06 671.426 2060.78 673.222C2061.18 674.244 2061.59 675.265 2062.01 676.318C2063 679.001 2063 679.001 2064 683.001C2049.48 683.001 2034.96 683.001 2020 683.001C2017.39 675.628 2014.78 668.256 2012.18 660.881C2010.97 657.446 2009.76 654.012 2008.54 650.58C2007.37 647.275 2006.21 643.968 2005.04 640.66C2004.38 638.782 2003.72 636.907 2003.05 635.031C2002.65 633.89 2002.25 632.749 2001.84 631.574C2001.3 630.065 2001.3 630.065 2000.76 628.525C2000 626.001 2000 626.001 2000 623.001C1984.65 623.496 1984.65 623.496 1969 624.001C1968.15 628.092 1967.29 632.183 1966.41 636.399C1965.73 639.657 1965.05 642.915 1964.36 646.172C1963.64 649.613 1962.92 653.055 1962.2 656.497C1961.38 660.444 1960.55 664.39 1959.72 668.336C1959.34 670.191 1959.34 670.191 1958.94 672.083C1958.7 673.224 1958.46 674.365 1958.22 675.541C1958 676.549 1957.79 677.557 1957.58 678.596C1957 681.001 1957 681.001 1956 683.001C1942.47 683.001 1928.94 683.001 1915 683.001C1918.53 664.289 1922.34 645.652 1926.33 627.034C1927.13 623.304 1927.92 619.575 1928.72 615.845C1930.05 609.614 1931.38 603.384 1932.71 597.153C1934.42 589.162 1936.13 581.17 1937.83 573.179C1939.31 566.265 1940.79 559.353 1942.26 552.44C1942.73 550.232 1943.2 548.024 1943.68 545.815C1944.55 541.719 1945.43 537.623 1946.3 533.526C1946.56 532.31 1946.82 531.093 1947.09 529.84C1947.33 528.728 1947.57 527.616 1947.81 526.47C1948.02 525.504 1948.23 524.539 1948.44 523.544C1948.92 521.352 1949.44 519.175 1950 517.001ZM1984 553.001C1982.54 557.179 1981.42 561.312 1980.49 565.641C1980.23 566.876 1979.96 568.111 1979.69 569.383C1979.29 571.298 1979.29 571.298 1978.88 573.251C1978.6 574.555 1978.32 575.86 1978.04 577.165C1976.6 583.031 1976.6 583.031 1976 589.001C1982.23 589.1 1988.45 589.172 1994.68 589.22C1996.79 589.24 1998.91 589.267 2001.02 589.302C2004.07 589.351 2007.13 589.374 2010.18 589.391C2011.11 589.412 2012.05 589.432 2013.01 589.454C2020.58 589.456 2027.52 587.865 2033.47 582.965C2034 582.296 2034.52 581.627 2035.06 580.938C2035.61 580.266 2036.16 579.595 2036.72 578.903C2039.76 574.382 2039.59 569.242 2039 564.001C2036.51 559.014 2033.01 555.504 2028 553.001C2026.58 552.911 2025.16 552.883 2023.73 552.887C2022.85 552.887 2021.97 552.887 2021.06 552.887C2020.11 552.892 2019.16 552.898 2018.18 552.903C2016.72 552.905 2016.72 552.905 2015.23 552.907C2012.11 552.913 2008.99 552.925 2005.88 552.938C2003.76 552.943 2001.65 552.948 1999.54 552.952C1994.36 552.963 1989.18 552.979 1984 553.001Z" fill="white"/>
<path d="M998 269C998 272.436 997.498 273.045 995.5 275.711C994.95 276.452 994.4 277.192 993.833 277.955C993.228 278.754 992.623 279.552 992 280.375C991.382 281.202 990.764 282.029 990.128 282.881C984.52 290.368 978.847 297.807 973.156 305.232C972.512 306.073 971.867 306.914 971.203 307.781C970.632 308.524 970.062 309.268 969.474 310.033C968.262 311.65 967.121 313.319 966 315C964.214 315.483 964.214 315.483 961.997 315.638C961.147 315.705 960.297 315.772 959.421 315.841C958.474 315.901 957.527 315.961 956.551 316.023C955.539 316.1 954.527 316.176 953.484 316.254C951.219 316.423 948.954 316.585 946.689 316.743C942.862 317.01 939.037 317.296 935.212 317.587C933.835 317.692 932.457 317.796 931.08 317.901C930.379 317.955 929.678 318.008 928.956 318.063C925.997 318.287 923.038 318.508 920.08 318.729C839.734 324.741 759.614 333.086 265.779 411.496C264.644 411.735 263.51 411.974 262.342 412.219C260.245 412.662 258.149 413.106 256.053 413.553C255.144 413.746 254.234 413.938 253.298 414.136C252.51 414.304 251.722 414.472 250.911 414.645C249 415 249 415 247 415C247.495 413.02 247.495 413.02 248 411C266.469 405.957 284.988 401.14 303.562 396.5C304.242 396.33 304.922 396.16 305.623 395.985C380.955 377.16 456.886 360.717 929.875 277.5C930.628 277.398 931.381 277.296 932.156 277.191C954.077 274.219 976.023 271.52 998 269Z" fill="#FBDC05"/>
<path d="M2111 517C2153.57 517 2196.14 517 2240 517C2238.65 529.15 2235.65 541.066 2233 553C2203.63 553 2174.26 553 2144 553C2143.67 555.97 2143.34 558.94 2143 562C2142.72 563.588 2142.42 565.173 2142.06 566.746C2141.89 567.52 2141.72 568.294 2141.54 569.092C2141.27 570.253 2141.27 570.253 2141 571.438C2140.82 572.239 2140.64 573.04 2140.46 573.865C2139.14 579.723 2139.14 579.723 2138 582C2157.14 582 2176.28 582 2196 582C2194.87 592.136 2194.87 592.136 2193.84 597.059C2193.52 598.626 2193.52 598.626 2193.18 600.225C2192.85 601.815 2192.85 601.815 2192.5 603.438C2192.16 605.068 2192.16 605.068 2191.82 606.732C2190.13 614.732 2190.13 614.732 2189 617C2169.86 617 2150.72 617 2131 617C2129.35 625.25 2127.7 633.5 2126 642C2125.67 643.65 2125.34 645.3 2125 647C2154.37 647 2183.74 647 2214 647C2207 681 2207 681 2206 683C2163.1 683 2120.2 683 2076 683C2078.25 668.375 2078.25 668.375 2079.45 662.762C2079.72 661.487 2079.99 660.211 2080.27 658.897C2080.56 657.532 2080.86 656.167 2081.15 654.802C2081.46 653.327 2081.78 651.853 2082.09 650.378C2082.93 646.415 2083.78 642.453 2084.63 638.491C2085.52 634.332 2086.41 630.172 2087.3 626.012C2088.78 619.04 2090.28 612.068 2091.77 605.097C2093.49 597.038 2095.22 588.978 2096.93 580.917C2098.77 572.318 2100.61 563.72 2102.44 555.122C2102.97 552.648 2103.5 550.174 2104.03 547.699C2104.86 543.82 2105.69 539.941 2106.52 536.062C2106.82 534.638 2107.13 533.213 2107.43 531.789C2107.85 529.848 2108.26 527.908 2108.68 525.968C2109.03 524.338 2109.03 524.338 2109.38 522.675C2110 520 2110 520 2111 517Z" fill="white"/>
<path d="M518 517C560.57 517 603.14 517 647 517C645.65 529.15 642.652 541.066 640 553C610.63 553 581.26 553 551 553C550.67 555.97 550.34 558.94 550 562C549.721 563.588 549.416 565.173 549.062 566.746C548.89 567.52 548.717 568.294 548.539 569.092C548.272 570.253 548.272 570.253 548 571.438C547.822 572.239 547.644 573.04 547.461 573.865C546.138 579.723 546.138 579.723 545 582C564.14 582 583.28 582 603 582C601.874 592.136 601.874 592.136 600.844 597.059C600.517 598.626 600.517 598.626 600.184 600.225C599.845 601.815 599.845 601.815 599.5 603.438C599.162 605.068 599.162 605.068 598.816 606.732C597.134 614.732 597.134 614.732 596 617C567.29 617.495 567.29 617.495 538 618C536.02 627.57 534.04 637.14 532 647C561.04 647 590.08 647 620 647C618.874 658.26 618.874 658.26 617.844 663.156C617.626 664.198 617.408 665.239 617.184 666.312C616.845 667.89 616.845 667.89 616.5 669.5C616.274 670.583 616.049 671.666 615.816 672.781C614.139 680.722 614.139 680.722 613 683C570.1 683 527.2 683 483 683C483.593 678.254 484.161 673.829 485.143 669.202C485.485 667.576 485.485 667.576 485.835 665.917C486.083 664.752 486.332 663.587 486.589 662.387C486.984 660.517 486.984 660.517 487.387 658.609C488.108 655.202 488.832 651.796 489.558 648.39C490.323 644.794 491.085 641.197 491.848 637.601C493.132 631.543 494.42 625.485 495.709 619.428C497.184 612.497 498.655 605.565 500.124 598.632C501.55 591.902 502.979 585.173 504.409 578.443C505.01 575.612 505.611 572.781 506.211 569.95C507.059 565.947 507.912 561.944 508.764 557.942C509.003 556.814 509.242 555.685 509.488 554.523C512.168 541.976 515.114 529.508 518 517Z" fill="white"/>
<path d="M1888.43 778.703C1890.65 780.689 1892.34 782.536 1894 785C1893.29 785.774 1892.57 786.547 1891.84 787.344C1886.48 793.165 1881.18 799.019 1876 805C1874.69 806.501 1873.38 808.001 1872.06 809.5C1871.18 810.506 1871.18 810.506 1870.29 811.531C1869.86 812.016 1869.44 812.501 1869 813C1865.41 811.99 1863.22 810.382 1860.56 807.875C1847.4 795.999 1830.84 790.604 1813.29 790.785C1807.05 791.192 1802.04 792.542 1796.94 796.188C1794.29 800.026 1794.07 802.338 1794 807C1794.92 809.668 1795.67 810.771 1798 812.384C1804.15 815.363 1810.12 817.338 1816.77 818.867C1818.81 819.366 1820.86 819.865 1822.9 820.363C1826.07 821.121 1829.24 821.873 1832.41 822.62C1868.02 831.058 1868.02 831.058 1878.88 846.703C1886.19 859.3 1886.49 872.108 1882.91 886.057C1878.6 901.153 1869.33 910.447 1856 918C1833.78 929.913 1806.13 929.419 1782.32 922.746C1763.97 917.192 1749.2 908.012 1736 894C1737.42 890.748 1739.13 888.687 1741.69 886.25C1745.07 882.958 1748.19 879.538 1751.26 875.957C1753.6 873.329 1756.09 870.884 1758.62 868.445C1760.11 867.029 1760.11 867.029 1761 865C1764.67 865.566 1766.16 866.912 1768.62 869.625C1781.47 882.896 1799.43 891.029 1817.94 891.375C1825.9 891.08 1832.72 890.261 1839 885C1841.43 882.317 1842.88 880.417 1843.2 876.754C1842.98 872.884 1842.57 870.658 1840 867.688C1833.05 863.776 1826.01 861.25 1818.29 859.344C1817.39 859.115 1816.49 858.886 1815.57 858.65C1812.74 857.926 1809.9 857.212 1807.06 856.5C1804.23 855.788 1801.4 855.073 1798.57 854.35C1796.81 853.903 1795.06 853.462 1793.31 853.028C1780.38 849.729 1767.98 844.485 1760.21 833.078C1753.33 821.277 1751.83 807.336 1755.19 794.063C1759.82 779.889 1767.7 769.955 1781 763C1788.1 759.808 1795.3 757.243 1803 756C1803.98 755.834 1803.98 755.834 1804.99 755.664C1834.78 751.512 1864.95 760.206 1888.43 778.703Z" fill="white"/>
<path d="M658.949 778.043C661.212 780.203 663.101 782.518 665 785C664.455 785.594 663.909 786.189 663.348 786.801C659.224 791.333 655.217 795.914 651.375 800.688C647.827 805.077 644.107 809.131 640 813C636.677 811.513 634.156 809.587 631.375 807.25C616.922 795.616 600.717 789.77 582 791C576.299 792.048 570.951 793.555 567 798C565.503 801.58 564.762 803.865 565.562 807.688C568.799 812.894 573.506 814.84 579.188 816.481C579.883 816.69 580.579 816.899 581.295 817.114C590.191 819.732 599.246 821.799 608.291 823.826C623.266 827.204 639.503 832.068 649 845C656.082 856.814 657.597 868.678 655.504 882.207C651.798 896.843 642.872 909.007 630 917C605.877 929.398 577.064 930.002 551.362 922.229C534.561 916.764 518.848 907.173 507 894C510.793 888.541 515.001 883.875 519.758 879.238C522.482 876.519 524.986 873.65 527.492 870.731C529.239 868.726 531.082 866.842 533 865C536.499 866.507 538.822 868.564 541.562 871.188C555.897 884.282 573.379 891.794 592.953 891.293C600.241 890.592 607.994 888.629 612.812 882.813C614.615 878.543 614.873 874.351 613.221 869.905C607.77 861.406 590.799 859.808 581.688 857.5C540.225 846.938 540.225 846.938 530.527 831.684C523.169 817.976 523.901 803.68 528 789C533.066 775.926 543.502 766.851 556 761C589.399 747.83 631.357 755.407 658.949 778.043Z" fill="white"/>
<path d="M1037.23 537.992C1038.87 539.622 1040.46 541.272 1042 543C1039.68 547.274 1036.71 550.636 1033.38 554.125C1027.96 559.874 1022.91 565.813 1018 572C1014 571.433 1011.87 569.418 1008.88 566.812C994.678 554.994 978.63 548.978 960 550C954.09 550.731 949.723 552.198 945 556C942.872 559.192 942.701 561.104 942.539 564.867C943.224 568.035 944.806 569.64 947 572C958.037 577.661 971.45 579.685 983.472 582.399C999.041 585.936 1016.07 590.462 1026 604C1033.52 616.689 1035.1 630.01 1031.88 644.437C1027.43 659.239 1017.74 670.059 1004.33 677.421C981.256 689.334 952.467 688.358 928.076 681.101C910.717 675.535 895.673 666.09 884 652C884.871 651.068 885.743 650.136 886.641 649.176C894.457 640.811 902.246 632.422 910 624C913.697 625.554 916.077 627.846 918.938 630.625C933.154 643.877 949.986 650.383 969.383 650.219C976.614 649.781 983.863 648.468 989 643C992.112 638.851 991.266 633.526 990.75 628.625C989.398 625.697 986.137 625.055 983.27 623.9C976.3 621.338 969.313 619.202 962.121 617.352C961.254 617.128 960.387 616.905 959.494 616.674C955.908 615.756 952.321 614.844 948.729 613.953C932.576 609.927 917.097 605.275 907.41 590.59C900.967 578.806 900.947 565.54 903.719 552.66C907.474 540.083 915.942 529.311 927.52 522.988C961.134 505.916 1008.98 512.723 1037.23 537.992Z" fill="white"/>
<path d="M1850.25 515.813C1852.46 515.908 1854.67 515.995 1856.88 516.073C1862.26 516.281 1867.63 516.605 1873 517C1875.22 526.285 1877.14 535.604 1878.91 544.983C1879.19 546.435 1879.46 547.887 1879.74 549.339C1880.48 553.238 1881.22 557.139 1881.96 561.039C1882.58 564.305 1883.2 567.571 1883.82 570.837C1885.28 578.537 1886.73 586.238 1888.19 593.939C1889.69 601.875 1891.2 609.81 1892.7 617.744C1894 624.576 1895.3 631.409 1896.59 638.242C1897.36 642.315 1898.13 646.388 1898.91 650.46C1899.63 654.281 1900.36 658.103 1901.08 661.925C1901.34 663.326 1901.61 664.727 1901.87 666.128C1902.24 668.04 1902.6 669.954 1902.96 671.868C1903.16 672.938 1903.36 674.008 1903.57 675.11C1904 678 1904 678 1904 683C1890.14 683 1876.28 683 1862 683C1861.4 679.907 1860.8 676.813 1860.19 673.625C1860.01 672.693 1859.82 671.76 1859.64 670.8C1857.93 661.886 1856.49 652.964 1855 644C1834.54 644 1814.08 644 1793 644C1788.71 651.59 1784.42 659.18 1780 667C1771.31 681.69 1771.31 681.69 1770 683C1768.59 683.093 1767.17 683.118 1765.76 683.114C1764.85 683.114 1763.95 683.114 1763.03 683.114C1762.05 683.109 1761.07 683.103 1760.06 683.098C1759.06 683.097 1758.06 683.095 1757.04 683.094C1753.84 683.088 1750.64 683.076 1747.44 683.063C1745.27 683.058 1743.11 683.053 1740.95 683.049C1735.63 683.038 1730.32 683.021 1725 683C1729.16 675.17 1733.63 667.589 1738.31 660.063C1739.74 657.76 1741.16 655.457 1742.59 653.153C1742.95 652.564 1743.31 651.976 1743.69 651.369C1747.64 644.976 1751.54 638.552 1755.44 632.125C1756.15 630.954 1756.86 629.782 1757.57 628.61C1759.71 625.074 1761.86 621.537 1764 618C1766.85 613.291 1769.71 608.583 1772.56 603.875C1772.91 603.295 1773.27 602.714 1773.63 602.116C1779.37 592.654 1785.16 583.223 1790.97 573.804C1794.45 568.154 1797.92 562.494 1801.36 556.817C1801.73 556.21 1802.09 555.604 1802.47 554.979C1804.22 552.089 1805.97 549.197 1807.71 546.303C1809.04 544.11 1810.39 541.932 1811.77 539.77C1813.53 536.925 1814.94 534.01 1816.33 530.967C1824.28 514.713 1833.22 514.531 1850.25 515.813ZM1841 560C1840.07 561.443 1839.19 562.92 1838.33 564.407C1837.5 565.848 1837.5 565.848 1836.64 567.318C1836.04 568.368 1835.43 569.418 1834.81 570.5C1833.55 572.691 1832.28 574.881 1831.01 577.071C1830.35 578.208 1829.7 579.345 1829.02 580.517C1827.02 583.978 1824.99 587.423 1822.96 590.868C1822.31 591.959 1821.67 593.05 1821.01 594.174C1819.77 596.287 1818.52 598.397 1817.27 600.506C1816.43 601.938 1816.43 601.938 1815.57 603.399C1815.07 604.241 1814.58 605.083 1814.06 605.951C1812.85 607.911 1812.85 607.911 1813 610C1825.21 610 1837.42 610 1850 610C1848.48 597.451 1848.48 597.451 1846.49 585C1846.36 584.268 1846.23 583.536 1846.1 582.782C1845.69 580.521 1845.28 578.261 1844.88 576C1844.59 574.435 1844.31 572.87 1844.04 571.305C1843.36 567.536 1842.68 563.768 1842 560C1841.67 560 1841.34 560 1841 560Z" fill="white"/>
<path d="M1016 758C1029.86 758 1043.72 758 1058 758C1052.85 783.356 1047.62 808.69 1042.19 833.989C1041.98 834.95 1041.78 835.912 1041.57 836.902C1041.18 838.695 1040.8 840.487 1040.41 842.278C1037.85 854.233 1036.06 865.065 1042.26 876.27C1046.41 882.373 1051.78 885.59 1059 887C1072.12 887.924 1081.93 885.662 1092 877C1103.05 865.779 1105.05 848.905 1108.08 834.172C1108.55 831.969 1109.01 829.767 1109.47 827.565C1110.69 821.806 1111.88 816.045 1113.08 810.283C1114.3 804.389 1115.54 798.497 1116.78 792.605C1119.2 781.073 1121.6 769.537 1124 758C1137.53 758 1151.06 758 1165 758C1164.33 764.676 1163.54 770.918 1162.13 777.418C1161.94 778.301 1161.76 779.184 1161.56 780.094C1160.95 782.983 1160.33 785.87 1159.7 788.758C1159.27 790.79 1158.83 792.823 1158.4 794.855C1157.49 799.107 1156.57 803.359 1155.66 807.609C1154.49 813.013 1153.33 818.42 1152.18 823.827C1151.29 828.025 1150.39 832.222 1149.48 836.418C1149.05 838.409 1148.63 840.399 1148.2 842.391C1143.69 863.594 1138.99 884.486 1124 901C1123.25 901.843 1122.5 902.686 1121.73 903.555C1111.95 913.968 1100.59 919.915 1087 924C1086.24 924.235 1085.47 924.469 1084.68 924.711C1063.98 930.143 1040.85 926.859 1022.16 916.902C1008.13 908.448 1001.08 895.427 997.001 880C996.008 875.253 995.786 870.586 995.751 865.75C995.731 865.069 995.71 864.389 995.689 863.688C995.651 858.324 996.378 853.138 997.271 847.861C997.404 847.074 997.536 846.287 997.673 845.476C999.213 836.514 1001.1 827.631 1003.01 818.742C1003.39 816.974 1003.77 815.206 1004.14 813.439C1005.12 808.851 1006.1 804.265 1007.09 799.679C1008.27 794.141 1009.46 788.602 1010.64 783.063C1012.42 774.708 1014.21 766.354 1016 758Z" fill="white"/>
<path d="M788.002 532C793.801 537.076 798.871 542.479 803.002 549C801.691 551.953 800.368 553.827 797.912 555.918C797.297 556.446 796.683 556.974 796.05 557.518C795.395 558.069 794.739 558.62 794.064 559.187C793.059 560.043 793.059 560.043 792.034 560.917C790.03 562.619 788.017 564.31 786.002 566C785.435 566.478 784.869 566.956 784.285 567.449C775.175 575.129 775.175 575.129 771.002 577C770.506 576.347 770.009 575.695 769.498 575.023C761.137 564.266 752.383 556.531 738.494 554.281C724.374 552.687 711.51 556.225 700.338 565.121C689.276 575.297 683.3 589.591 682.627 604.562C683.167 617.908 688.464 628.88 698.002 638C707.764 645.759 719.833 647.79 732.002 647C745.92 644.88 756.609 638.206 767.002 629C770.119 630.354 771.912 631.764 774.025 634.414C774.845 635.433 774.845 635.433 775.681 636.472C776.241 637.183 776.8 637.893 777.377 638.625C777.929 639.312 778.48 639.999 779.049 640.707C780.157 642.093 781.257 643.487 782.348 644.887C783.476 646.328 784.624 647.754 785.788 649.167C786.346 649.862 786.904 650.557 787.478 651.273C787.987 651.894 788.496 652.514 789.02 653.153C790.002 655 790.002 655 789.76 657.116C785.561 667.544 768.4 674.745 758.752 678.91C736.182 687.854 710.473 690.008 687.76 680.234C679.668 676.521 672.584 672.039 666.002 666C665.246 665.336 664.491 664.672 663.713 663.988C648.65 649.986 640.757 630.391 639.873 610.031C639.442 586.361 647.001 563.609 663.002 546C663.813 545.096 664.623 544.192 665.459 543.261C696.239 510.678 752.061 503.967 788.002 532Z" fill="white"/>
<path d="M1262.15 516.877C1263.11 516.878 1264.07 516.879 1265.06 516.88C1266.15 516.879 1267.25 516.877 1268.37 516.876C1269.59 516.88 1270.8 516.883 1272.05 516.887C1273.95 516.887 1273.95 516.887 1275.89 516.886C1279.38 516.886 1282.86 516.892 1286.35 516.899C1289.99 516.905 1293.63 516.906 1297.27 516.907C1304.17 516.91 1311.07 516.918 1317.97 516.928C1325.82 516.94 1333.68 516.945 1341.53 516.95C1357.69 516.961 1373.84 516.978 1390 517C1386.29 535.555 1386.29 535.555 1385.63 538.835C1385.22 540.894 1384.82 542.955 1384.42 545.017C1384.25 545.922 1384.08 546.826 1383.9 547.758C1383.67 548.955 1383.67 548.955 1383.44 550.177C1383 552 1383 552 1382 553C1379.23 553.096 1376.49 553.126 1373.72 553.114C1372.41 553.114 1372.41 553.114 1371.09 553.114C1368.2 553.114 1365.32 553.106 1362.43 553.098C1360.44 553.096 1358.45 553.095 1356.45 553.094C1351.19 553.09 1345.93 553.08 1340.67 553.069C1335.31 553.059 1329.95 553.054 1324.59 553.049C1314.06 553.038 1303.53 553.021 1293 553C1292.78 554.097 1292.78 554.097 1292.56 555.216C1290.7 564.477 1288.85 573.739 1287 583C1306.47 583 1325.94 583 1346 583C1341 609 1341 609 1339 618C1319.2 618 1299.4 618 1279 618C1278.34 622.29 1277.68 626.58 1277 631C1276.18 635.141 1275.33 639.266 1274.43 643.391C1274.19 644.502 1273.96 645.613 1273.71 646.758C1273.21 649.078 1272.71 651.397 1272.2 653.716C1271.43 657.282 1270.67 660.85 1269.9 664.418C1269.41 666.68 1268.92 668.942 1268.43 671.204C1268.09 672.808 1268.09 672.808 1267.74 674.445C1267.42 675.913 1267.42 675.913 1267.09 677.412C1266.81 678.708 1266.81 678.708 1266.52 680.031C1266 682 1266 682 1265 683C1261.97 683.089 1258.96 683.116 1255.93 683.098C1255.02 683.097 1254.12 683.095 1253.18 683.094C1250.27 683.088 1247.35 683.076 1244.44 683.063C1242.47 683.058 1240.5 683.053 1238.53 683.049C1233.68 683.038 1228.84 683.021 1224 683C1231.21 648.552 1238.5 614.119 1245.81 579.691C1247.14 573.458 1248.46 567.225 1249.78 560.992C1251.04 555.024 1252.31 549.056 1253.58 543.09C1254.05 540.85 1254.53 538.611 1255 536.371C1255.65 533.288 1256.31 530.205 1256.97 527.123C1257.16 526.207 1257.35 525.29 1257.55 524.345C1259.11 517.051 1259.11 517.051 1262.15 516.877Z" fill="white"/>
<path d="M1402 517C1450.51 517 1499.02 517 1549 517C1548.38 522.572 1547.77 527.604 1546.59 533.004C1546.35 534.118 1546.11 535.233 1545.86 536.381C1545.55 537.761 1545.25 539.141 1544.94 540.562C1543.97 544.997 1543 549.431 1542 554C1524.51 554.33 1507.02 554.66 1489 555C1488.19 558.806 1487.37 562.613 1486.54 566.535C1483.86 579.084 1481.17 591.633 1478.49 604.181C1476.86 611.793 1475.24 619.404 1473.61 627.016C1472.2 633.649 1470.78 640.282 1469.36 646.914C1468.61 650.427 1467.85 653.94 1467.11 657.454C1466.27 661.372 1465.43 665.289 1464.59 669.207C1464.34 670.378 1464.09 671.549 1463.84 672.755C1463.61 673.818 1463.38 674.881 1463.15 675.976C1462.85 677.367 1462.85 677.367 1462.54 678.786C1462 681 1462 681 1461 683C1447.47 683 1433.94 683 1420 683C1421.35 674.903 1422.79 666.911 1424.52 658.897C1424.77 657.755 1425.01 656.612 1425.26 655.434C1426.06 651.7 1426.86 647.967 1427.66 644.234C1428.22 641.628 1428.78 639.022 1429.34 636.416C1430.65 630.286 1431.96 624.156 1433.28 618.026C1434.93 610.353 1436.57 602.678 1438.21 595.004C1441.14 581.335 1444.07 567.668 1447 554C1429.51 554 1412.02 554 1394 554C1399 529 1399 529 1402 517Z" fill="white"/>
<path d="M354 517C402.51 517 451.02 517 501 517C500.381 522.572 499.77 527.604 498.59 533.004C498.349 534.118 498.108 535.233 497.859 536.381C497.555 537.761 497.251 539.141 496.938 540.562C495.968 544.997 494.999 549.431 494 554C476.51 554.33 459.02 554.66 441 555C440.187 558.806 439.375 562.613 438.537 566.535C435.858 579.084 433.175 591.633 430.491 604.181C428.863 611.793 427.236 619.404 425.611 627.016C424.195 633.649 422.778 640.282 421.358 646.914C420.606 650.427 419.855 653.94 419.106 657.454C418.271 661.372 417.432 665.289 416.592 669.207C416.343 670.378 416.094 671.549 415.838 672.755C415.609 673.818 415.381 674.881 415.145 675.976C414.848 677.367 414.848 677.367 414.545 678.786C414 681 414 681 413 683C399.47 683 385.94 683 372 683C373.35 674.903 374.794 666.911 376.522 658.897C376.766 657.755 377.01 656.612 377.262 655.434C378.06 651.7 378.862 647.967 379.664 644.234C380.222 641.628 380.78 639.022 381.337 636.416C382.649 630.286 383.963 624.156 385.279 618.026C386.925 610.353 388.568 602.678 390.211 595.004C393.137 581.335 396.069 567.668 399 554C381.51 554 364.02 554 346 554C347.134 548.452 348.269 542.904 349.438 537.188C349.794 535.44 350.15 533.692 350.517 531.891C350.802 530.504 351.086 529.117 351.371 527.73C351.517 527.012 351.663 526.293 351.814 525.552C352.414 522.633 353.056 519.831 354 517Z" fill="white"/>
<path d="M1182.42 757.877C1184.04 757.879 1184.04 757.879 1185.7 757.88C1187.56 757.878 1187.56 757.878 1189.45 757.876C1190.84 757.88 1192.22 757.883 1193.61 757.887C1195.06 757.887 1196.5 757.887 1197.95 757.886C1201.9 757.886 1205.84 757.892 1209.78 757.899C1213.9 757.905 1218.02 757.906 1222.14 757.907C1229.94 757.91 1237.74 757.918 1245.54 757.928C1254.42 757.94 1263.3 757.945 1272.18 757.95C1290.46 757.961 1308.73 757.978 1327 758C1326.23 761.918 1325.46 765.834 1324.69 769.75C1324.47 770.842 1324.26 771.934 1324.04 773.059C1323.72 774.693 1323.72 774.693 1323.39 776.36C1323.1 777.837 1323.1 777.837 1322.8 779.343C1321.65 784.59 1320.3 789.79 1319 795C1301.51 795 1284.02 795 1266 795C1265.34 799.29 1264.68 803.58 1264 808C1263.23 811.909 1262.43 815.801 1261.59 819.694C1261.24 821.326 1261.24 821.326 1260.88 822.991C1260.12 826.538 1259.36 830.083 1258.59 833.629C1258.06 836.112 1257.52 838.595 1256.99 841.078C1255.88 846.257 1254.77 851.435 1253.65 856.613C1252.08 863.911 1250.51 871.211 1248.94 878.511C1247.72 884.196 1246.5 889.882 1245.28 895.567C1245.02 896.777 1244.76 897.986 1244.49 899.233C1243.76 902.646 1243.02 906.059 1242.28 909.471C1242.07 910.484 1241.85 911.496 1241.63 912.539C1241.42 913.469 1241.22 914.398 1241.02 915.355C1240.84 916.16 1240.67 916.966 1240.49 917.795C1240.03 919.872 1239.52 921.937 1239 924C1225.47 924 1211.94 924 1198 924C1199.13 912.75 1199.13 912.75 1200.06 908.37C1200.27 907.374 1200.48 906.379 1200.7 905.353C1200.93 904.298 1201.16 903.244 1201.39 902.157C1201.63 901.017 1201.88 899.878 1202.13 898.704C1202.92 894.968 1203.73 891.234 1204.53 887.5C1205.09 884.896 1205.65 882.292 1206.2 879.688C1207.36 874.247 1208.53 868.807 1209.7 863.368C1211.05 857.079 1212.4 850.788 1213.75 844.496C1215.04 838.432 1216.34 832.369 1217.64 826.306C1218.19 823.729 1218.74 821.152 1219.29 818.574C1220.06 814.985 1220.83 811.397 1221.61 807.809C1221.84 806.738 1222.06 805.667 1222.3 804.563C1222.51 803.59 1222.72 802.618 1222.94 801.615C1223.12 800.767 1223.3 799.919 1223.49 799.046C1224 797 1224 797 1225 795C1207.51 795 1190.02 795 1172 795C1172.95 787.376 1174.38 780.06 1176 772.563C1176.27 771.272 1176.55 769.981 1176.83 768.651C1177.09 767.427 1177.35 766.203 1177.62 764.942C1177.86 763.825 1178.1 762.708 1178.35 761.557C1179.24 758.039 1179.24 758.039 1182.42 757.877Z" fill="white"/>
<path d="M882 758C895.53 758 909.06 758 923 758C921.875 769.25 921.875 769.25 920.937 773.631C920.727 774.626 920.517 775.621 920.3 776.647C920.072 777.702 919.843 778.757 919.607 779.844C919.365 780.983 919.123 782.123 918.873 783.297C918.077 787.032 917.273 790.766 916.469 794.5C915.912 797.104 915.355 799.708 914.799 802.312C913.636 807.753 912.468 813.193 911.298 818.632C909.945 824.922 908.598 831.213 907.254 837.504C905.959 843.568 904.661 849.631 903.36 855.694C902.808 858.272 902.256 860.849 901.705 863.426C900.937 867.015 900.165 870.603 899.393 874.191C899.05 875.798 899.05 875.798 898.7 877.437C898.384 878.896 898.384 878.896 898.063 880.385C897.88 881.233 897.698 882.081 897.511 882.955C897 885 897 885 896 887C924.05 887 952.1 887 981 887C980 898 980 898 974 924C932.09 924 890.18 924 847 924C858.503 868.786 858.503 868.786 863.445 845.5C863.992 842.923 864.538 840.346 865.084 837.769C866.34 831.842 867.597 825.915 868.855 819.988C870.295 813.201 871.733 806.414 873.172 799.627C876.114 785.751 879.057 771.876 882 758Z" fill="white"/>
<path d="M1343 758C1356.53 758 1370.06 758 1384 758C1382.88 769.25 1382.88 769.25 1381.94 773.612C1381.73 774.605 1381.52 775.597 1381.3 776.62C1381.07 777.673 1380.85 778.726 1380.61 779.811C1380.37 780.949 1380.13 782.088 1379.88 783.26C1379.08 787.009 1378.27 790.757 1377.46 794.504C1376.9 797.146 1376.33 799.788 1375.77 802.43C1374.43 808.684 1373.09 814.938 1371.74 821.191C1370.09 828.867 1368.45 836.544 1366.81 844.221C1365.09 852.268 1363.36 860.316 1361.64 868.362C1359.28 879.313 1356.94 890.264 1354.64 901.226C1354.47 902.036 1354.3 902.846 1354.12 903.681C1353.38 907.239 1352.63 910.798 1351.9 914.359C1351.65 915.52 1351.41 916.682 1351.16 917.879C1350.85 919.348 1350.85 919.348 1350.54 920.848C1350 923 1350 923 1349 924C1345.97 924.089 1342.96 924.115 1339.93 924.098C1339.13 924.097 1338.32 924.096 1337.49 924.095C1334.48 924.089 1331.46 924.075 1328.44 924.062C1324.79 924.051 1321.15 924.04 1317.5 924.029C1315.69 924.024 1313.88 924.018 1312.07 924.012C1310.71 924.008 1309.36 924.004 1308 924C1315.19 889.31 1322.5 854.644 1329.85 819.988C1331.29 813.201 1332.73 806.414 1334.17 799.627C1337.11 785.751 1340.06 771.876 1343 758Z" fill="white"/>
<path d="M2003.25 850.812C2004.52 851.854 2005.77 852.917 2007 854C2007.6 854.501 2008.21 855.003 2008.83 855.519C2016.86 862.722 2021.34 873.304 2022.25 883.922C2022.71 895.963 2019.6 906.6 2012 916C2011.52 916.613 2011.04 917.227 2010.55 917.859C2004.88 924.311 1995.42 929.235 1987 931C1973.64 931.815 1961.45 931.428 1950.67 922.492C1950.12 922 1949.57 921.507 1949 921C1947.7 919.855 1947.7 919.855 1946.37 918.687C1936.3 907.284 1933.13 896.104 1933.83 881.01C1934.74 870.193 1940.65 860.823 1948.58 853.676C1964.38 841.465 1986.42 838.755 2003.25 850.812ZM1950 866C1944.15 874.2 1941.92 882.997 1943 893C1945.75 904.49 1952.06 912.72 1962 919C1969.95 923.202 1979.71 923.415 1988.28 921.121C1997.93 917.426 2005.62 911.509 2010 902C2013.66 891.768 2013.82 883.217 2010 873C2004.75 862.845 1996.74 856.582 1986 853C1970.83 851.95 1960.61 854.256 1950 866Z" fill="white"/>
<path d="M1960 863C1964.33 862.938 1968.66 862.876 1973.12 862.812C1974.48 862.785 1975.83 862.758 1977.23 862.729C1978.85 862.718 1978.85 862.718 1980.51 862.707C1981.61 862.691 1982.71 862.675 1983.84 862.659C1988.75 863.188 1991.98 864.895 1995.31 868.5C1998.14 872.69 1998.41 876.02 1998 881C1996.97 883.786 1995.79 885.531 1994 888C1991.36 889.199 1991.36 889.199 1989 890C1989.3 890.565 1989.61 891.13 1989.92 891.712C1991.28 894.264 1992.64 896.819 1994 899.375C1994.72 900.709 1994.72 900.709 1995.45 902.07C1995.9 902.921 1996.35 903.772 1996.81 904.648C1997.23 905.434 1997.65 906.219 1998.08 907.029C1999 909 1999 909 1999 911C1996.03 911 1993.06 911 1990 911C1989.42 909.64 1988.83 908.28 1988.23 906.879C1984.28 897.047 1984.28 897.047 1976.66 890.515C1973.02 890.187 1973.02 890.187 1968 891C1968 897.6 1968 904.2 1968 911C1965.36 911 1962.72 911 1960 911C1960 895.16 1960 879.32 1960 863ZM1968 870C1968 874.95 1968 879.9 1968 885C1970.37 885.062 1972.74 885.124 1975.19 885.187C1975.93 885.215 1976.66 885.242 1977.42 885.27C1981.84 885.325 1984.52 884.728 1988 882C1990.28 879.251 1990.28 879.251 1989.81 876.5C1988.94 873.825 1988.17 872.736 1986 871C1982.81 869.406 1979.37 869.898 1975.88 869.937C1974.74 869.944 1974.74 869.944 1973.59 869.951C1971.73 869.963 1969.86 869.981 1968 870Z" fill="white"/>
</svg>
