<?xml version="1.0" encoding="UTF-8"?>
<svg version="1.1" xmlns="http://www.w3.org/2000/svg" width="2941" height="1264">
<path d="M0 0 C2.38667655 2.21147841 4.05239328 4.84124981 5.8125 7.5625 C6.33239502 8.33609863 6.85229004 9.10969727 7.38793945 9.90673828 C8.95144382 12.25523861 10.48011428 14.6230929 12 17 C12.42249023 17.65049316 12.84498047 18.30098633 13.28027344 18.97119141 C34.23555582 51.44407937 45.68953526 89.82136689 37.49365234 128.38232422 C32.74525526 148.91038182 23.57747846 168.12224015 11 185 C10.56719727 185.58539551 10.13439453 186.17079102 9.68847656 186.77392578 C3.02475108 195.70838022 -4.2735911 203.97584895 -12 212 C-12.50176758 212.52368164 -13.00353516 213.04736328 -13.52050781 213.58691406 C-19.45378002 219.74912282 -25.53581519 225.47846355 -32.24609375 230.8046875 C-35.07431996 233.05924513 -37.81434777 235.39876109 -40.5625 237.75 C-111.11227327 296.55664972 -201.90946541 332.3402209 -290 364 C-291.23339111 364.44442444 -291.23339111 364.44442444 -292.49169922 364.89782715 C-383.82819858 397.79339128 -477.95597439 423.07579466 -687 470 C-688.84452759 470.37547974 -688.84452759 470.37547974 -690.72631836 470.75854492 C-764.26592364 485.71403175 -838.27453424 498.68196115 -912.5 509.75 C-913.3556958 509.87946014 -914.2113916 510.00892029 -915.09301758 510.14230347 C-917.42553322 510.49330056 -919.75922134 510.83456352 -922.09375 511.171875 C-923.36927734 511.3584668 -924.64480469 511.54505859 -925.95898438 511.73730469 C-929 512 -929 512 -932 511 C-928.16834457 509.66878205 -924.40044115 508.57264939 -920.43115234 507.74169922 C-919.34702057 507.51254822 -918.26288879 507.28339722 -917.14590454 507.04730225 C-915.97111542 506.80223938 -914.79632629 506.55717651 -913.5859375 506.3046875 C-911.66872709 505.89917105 -909.75152047 505.49363628 -907.83445549 505.08743286 C-905.7764866 504.65156934 -903.71826204 504.21692636 -901.66003418 503.7822876 C-813.6861419 485.17868943 -726.41970374 463.43148799 -630 432 C-628.74881378 431.58841644 -628.74881378 431.58841644 -627.47235107 431.16851807 C-578.2361438 414.95181621 -529.83720174 396.24577918 -483 374 C-481.96133789 373.51080078 -480.92267578 373.02160156 -479.85253906 372.51757812 C-456.25960861 361.40397107 -433.39571442 349.36640715 -411 336 C-410.19224121 335.52208008 -409.38448242 335.04416016 -408.55224609 334.55175781 C-383.26016822 319.57384429 -359.04049287 302.47556406 -337 283 C-336.05769531 282.16855469 -335.11539063 281.33710937 -334.14453125 280.48046875 C-321.5941941 269.18347161 -309.28857875 257.42074723 -299 244 C-298.21753906 243.03449219 -297.43507813 242.06898438 -296.62890625 241.07421875 C-271.05472088 209.28105057 -253.5716225 167.57742276 -257.46484375 126.20703125 C-259.35763797 110.01312511 -263.30042241 92.58235205 -272.1171875 78.6640625 C-273 77 -273 77 -273 74 C-272.09436813 73.75040024 -271.18873627 73.50080048 -270.25566101 73.24363708 C-225.9676498 61.03709604 -181.68393088 48.81535904 -137.41521549 36.53900623 C-133.16094938 35.35924925 -128.90665591 34.17959093 -124.65234375 33 C-123.80141333 32.76405813 -122.9504829 32.52811626 -122.07376671 32.28502464 C-107.05246883 28.120317 -92.02852468 23.9652106 -77.00390625 19.8125 C-74.80866825 19.2056848 -72.61343203 18.59886313 -70.41819763 17.99203491 C-60.78840069 15.33015049 -51.15850118 12.66863988 -41.52812862 10.00883865 C-37.59078444 8.92122301 -33.65361513 7.83297542 -29.71648979 6.74456787 C-27.87772911 6.23640549 -26.03888979 5.72852754 -24.19996834 5.22094727 C-21.68389436 4.52643431 -19.1680877 3.83096123 -16.65234375 3.13525391 C-15.91435012 2.93180674 -15.17635649 2.72835957 -14.41599941 2.51874733 C-3.30593182 -0.55708814 -3.30593182 -0.55708814 0 0 Z " fill="#000000" transform="translate(2730,516)"/>
<path d="M0 0 C1.011763 0.31544266 2.023526 0.63088531 3.06594849 0.95588684 C6.3695934 1.98952785 9.66942773 3.03468017 12.96875 4.08203125 C14.10544128 4.44111572 15.24213257 4.8002002 16.41326904 5.17016602 C62.33209223 19.69075356 107.52359608 36.14489792 151.46875 55.89453125 C152.56074707 56.3834082 153.65274414 56.87228516 154.77783203 57.37597656 C196.14405493 75.9662833 236.88763402 96.91097545 273.46875 123.89453125 C274.50386719 124.64734375 275.53898437 125.40015625 276.60546875 126.17578125 C291.42265351 137.09578924 306.72199843 148.63350679 318.46875 162.89453125 C283.26477951 173.11278457 248.05617329 183.3143295 212.82715797 193.44595337 C209.39646255 194.43262094 205.9657985 195.41939754 202.53515625 196.40625 C201.82746723 196.60981865 201.11977821 196.8133873 200.39064407 197.02312469 C185.98619565 201.16699708 171.58474669 205.32125403 157.18359375 209.4765625 C156.03134748 209.80901978 154.87910122 210.14147705 153.6919384 210.48400879 C143.21241798 213.5076828 132.73294887 216.53153452 122.25375366 219.55633545 C121.14246062 219.87709423 120.03116758 220.19785301 118.886199 220.52833176 C116.67825836 221.16564385 114.4703349 221.8030155 112.26242924 222.44044876 C106.98162871 223.96479206 101.70036656 225.48749493 96.41798401 227.00634766 C94.42740036 227.5788739 92.43683495 228.15146357 90.44628906 228.72412109 C89.4953559 228.99769314 88.54442274 229.27126518 87.56467342 229.55312729 C82.52403843 231.0057631 77.48842874 232.47363181 72.4597187 233.96703243 C70.41690591 234.57345266 68.37292252 235.1757315 66.32846069 235.77656555 C63.99450281 236.46419327 61.6630202 237.16031572 59.33486938 237.86735535 C58.34570526 238.15709732 57.35654114 238.44683929 56.33740234 238.74536133 C55.50639008 238.99465897 54.67537781 239.2439566 53.81918335 239.50080872 C51.05359325 239.96407441 49.14848409 239.69070288 46.46875 238.89453125 C44.1796875 236.92578125 44.1796875 236.92578125 41.84375 234.39453125 C36.71732554 229.06425781 31.25253047 224.48863372 25.46875 219.89453125 C24.34620771 218.9718115 23.22517985 218.04724707 22.10546875 217.12109375 C13.05239904 209.68031616 3.593792 202.99450537 -6.14794922 196.48828125 C-8.43962844 194.9558 -10.72270061 193.41129621 -13.00390625 191.86328125 C-77.24937529 148.42219337 -147.42634719 114.4419739 -220.53125 88.89453125 C-220.53125 87.90453125 -220.53125 86.91453125 -220.53125 85.89453125 C-219.50918457 85.44875732 -218.48711914 85.0029834 -217.43408203 84.54370117 C-197.7434431 75.95028086 -178.0898514 67.28482554 -158.53125 58.39453125 C-144.74104707 52.12659257 -130.91266073 45.95779833 -117.03125 39.89453125 C-103.93756978 34.17464473 -90.88342714 28.37623583 -77.871521 22.47253418 C-75.24354448 21.28077528 -72.61438258 20.09167082 -69.98486328 18.90332031 C-62.22003161 15.3921264 -54.46168006 11.86915861 -46.72865295 8.2883606 C-43.41234355 6.75641248 -40.08930128 5.23948015 -36.76480103 3.72540283 C-35.21159121 3.01360125 -33.66149038 2.29496984 -32.11483765 1.56903076 C-29.98782206 0.57130892 -27.85121353 -0.40221867 -25.7109375 -1.37109375 C-24.79189888 -1.81323715 -24.79189888 -1.81323715 -23.85429382 -2.26431274 C-15.77908972 -5.84338246 -7.93237186 -2.51510424 0 0 Z " fill="#000000" transform="translate(2392.53125,331.10546875)"/>
<path d="M0 0 C1.10058243 0.05518295 2.20116486 0.11036591 3.33509827 0.16722107 C5.22495201 0.25876465 5.22495201 0.25876465 7.15298462 0.35215759 C8.56404507 0.42623027 9.97509096 0.50058069 11.38612366 0.57518005 C12.8642552 0.65001792 14.34239989 0.72459664 15.82055664 0.79893494 C19.86162072 1.0044008 23.90219209 1.21837031 27.9426651 1.43512344 C30.48131142 1.57114154 33.02004346 1.70546068 35.55879211 1.83955383 C61.99007694 3.24223771 88.39545531 4.94458002 114.79300308 6.87878036 C117.38476015 7.06859912 119.9766083 7.25713549 122.56846619 7.4455719 C153.73710834 9.72001971 184.66660539 12.56132998 215.54627991 17.5087738 C216.92172751 17.72707833 218.29721656 17.94512193 219.67274475 18.16291809 C298.34931985 30.63218182 376.23022857 46.19695316 453.54627991 65.3837738 C455.01073547 65.74573349 455.01073547 65.74573349 456.504776 66.11500549 C469.64138043 69.37159749 482.61710625 73.00697019 495.54627991 77.0087738 C493.93447302 80.23238758 490.54432072 80.93909701 487.35877991 82.2900238 C486.60665222 82.61531067 485.85452454 82.94059753 485.0796051 83.27574158 C482.57099248 84.35931029 480.05860577 85.43384597 477.54627991 86.5087738 C475.77836864 87.27102243 474.01079572 88.03405624 472.24354553 88.7978363 C469.48053083 89.99192914 466.71733547 91.18557993 463.95314026 92.37693787 C455.14688445 96.17328236 446.36590345 100.02600455 437.58900452 103.88963318 C423.42090866 110.12549985 409.2391954 116.32962939 395.04627991 122.5087738 C382.60075006 127.92764913 370.16262113 133.36295897 357.73448181 138.8216095 C355.18898367 139.93850587 352.64231103 141.0526837 350.09535217 142.16624451 C342.04352035 145.6903116 334.00631218 149.24127795 326.0037384 152.87606812 C322.24144931 154.58301782 318.47298348 156.2760732 314.70393372 157.96803284 C312.90785488 158.77902286 311.11483776 159.59683222 309.32514954 160.42182922 C306.84248523 161.56578129 304.35028335 162.68592778 301.85487366 163.80174255 C301.12959976 164.14344482 300.40432587 164.48514709 299.65707397 164.83720398 C291.05139958 168.61955061 283.19892837 165.53103598 274.55409241 163.12205505 C272.33104502 162.5141964 270.10789565 161.90671064 267.88465881 161.29954529 C266.71267944 160.97767242 265.54070007 160.65579956 264.33320618 160.32417297 C186.99700432 139.14395062 108.60935151 122.4022406 -91.45372009 92.0087738 C-93.7986256 91.70274546 -96.14351537 91.39659646 -98.48838806 91.09031677 C-103.81002296 90.39537221 -109.13181501 89.70164611 -114.45372009 89.0087738 C-113.37371849 85.76876901 -112.88776634 85.30762576 -110.27012634 83.36424255 C-109.59884705 82.85933289 -108.92756775 82.35442322 -108.23594666 81.83421326 C-107.50343689 81.29369324 -106.77092712 80.75317322 -106.01622009 80.1962738 C-104.45961333 79.02782473 -102.90364462 77.85852525 -101.34825134 76.6884613 C-100.54081482 76.08356873 -99.7333783 75.47867615 -98.901474 74.85545349 C-94.96801879 71.8879036 -91.0864669 68.85468275 -87.20372009 65.8212738 C-82.1323157 61.8679828 -77.05451457 57.92408213 -71.95372009 54.0087738 C-66.77056208 50.02978382 -61.60932148 46.02339463 -56.45372009 42.0087738 C-48.1281985 35.52650581 -39.77035431 29.0880328 -31.39903259 22.6650238 C-24.81911334 17.61112074 -18.25593786 12.53605259 -11.70372009 7.4462738 C-10.90425964 6.82591248 -10.10479919 6.20555115 -9.28111267 5.56639099 C-8.53885437 4.98921326 -7.79659607 4.41203552 -7.03184509 3.81736755 C-6.36572205 3.29972839 -5.699599 2.78208923 -5.01329041 2.24876404 C-2.19482788 0.00784808 -2.19482788 0.00784808 0 0 Z " fill="#000000" transform="translate(1853.4537200927734,241.99122619628906)"/>
<path d="M0 0 C2.27311907 0.06731601 4.54624631 0.13435657 6.81938171 0.20111847 C13.31025394 0.39186507 19.80096683 0.58697269 26.29149818 0.78899956 C28.28192518 0.85058495 30.27238704 0.91105489 32.26288414 0.97033119 C35.01311615 1.05270532 37.76316083 1.13977154 40.51320648 1.22812271 C41.30612028 1.25101018 42.09903408 1.27389765 42.91597557 1.29747868 C48.18850814 1.47385016 53.3661584 1.96617546 58.60378265 2.60116959 C55.23930253 6.0882173 51.78302513 9.12218539 47.91628265 12.03866959 C46.760863 12.91565259 45.6059435 13.79329481 44.4514389 14.67148209 C43.83285004 15.1410231 43.21426117 15.61056412 42.57692719 16.09433365 C38.98137555 18.84015704 35.42037541 21.63040826 31.85378265 24.41366959 C23.7867465 30.69877188 15.67060241 36.91763466 7.54079437 43.12118912 C2.5509394 46.93370498 -2.42092103 50.76969139 -7.39621735 54.60116959 C-9.01773719 55.84883355 -10.63944169 57.09625711 -12.26120758 58.34360123 C-13.35193777 59.18253675 -14.44259523 60.02156683 -15.53318024 60.86069107 C-18.17779451 62.89546607 -20.82335121 64.92898261 -23.4704361 66.96054459 C-24.49781891 67.74945084 -25.52520172 68.53835709 -26.58371735 69.35116959 C-27.3567923 69.94466202 -27.3567923 69.94466202 -28.14548492 70.5501442 C-31.49004201 73.12222361 -34.82130061 75.71077482 -38.14621735 78.30820084 C-38.96324127 78.94596451 -39.7802652 79.58372818 -40.62204742 80.24081802 C-42.24286991 81.50686959 -43.86253057 82.77441018 -45.48093414 84.0435524 C-46.21996979 84.62073013 -46.95900543 85.19790787 -47.7204361 85.79257584 C-48.38132233 86.310215 -49.04220856 86.82785416 -49.72312164 87.36117935 C-53.29874921 90.01120305 -55.64582313 89.58145748 -60.04221344 89.2544899 C-60.71110785 89.20545139 -61.38000225 89.15641289 -62.06916618 89.10588837 C-68.70617016 88.60629098 -75.33280161 87.99241355 -81.95747948 87.35125923 C-85.71349202 86.98827815 -89.47033072 86.6339841 -93.22702789 86.27817154 C-94.01841062 86.2030462 -94.80979334 86.12792086 -95.62515736 86.05051899 C-173.32669323 78.68088658 -251.14827525 73.74953589 -399.90110016 68.89145279 C-410.75073705 68.71042413 -421.56361733 68.23673848 -432.39621735 67.60116959 C-430.29105226 64.00158337 -428.11943735 61.02856307 -425.27121735 57.97616959 C-422.0253386 54.43616591 -418.91331483 50.83813594 -415.89621735 47.10116959 C-412.28589292 42.63840745 -408.51193806 38.37397426 -404.64621735 34.13241959 C-402.31759681 31.51272149 -400.10058787 28.82601649 -397.89621735 26.10116959 C-394.24055383 21.58572458 -390.45430301 17.23337878 -386.5094986 12.96835709 C-384.38483008 10.65731819 -384.38483008 10.65731819 -382.6266861 8.23398209 C-378.57450444 2.90066571 -378.57450444 2.90066571 -375.28406525 2.06430435 C-374.50590454 2.01588394 -373.72774384 1.96746353 -372.9260025 1.91757584 C-372.03963104 1.85707047 -371.15325958 1.79656509 -370.24002838 1.73422623 C-369.30157074 1.69031754 -368.3631131 1.64640884 -367.39621735 1.60116959 C-366.00134094 1.52853897 -366.00134094 1.52853897 -364.57828522 1.45444107 C-361.50504183 1.3126159 -358.43197281 1.20312376 -355.35715485 1.10116959 C-353.64541832 1.04073723 -353.64541832 1.04073723 -351.89910126 0.97908401 C-348.18992392 0.84939601 -344.48059862 0.72487809 -340.77121735 0.60116959 C-339.48848938 0.55759323 -338.20576141 0.51401688 -336.8841629 0.46912003 C-314.72364302 -0.2834416 -292.56547856 -0.97213092 -270.39621735 -1.39883041 C-269.27946625 -1.42074448 -268.16271515 -1.44265854 -267.01212311 -1.46523666 C-186.05179374 -3.04102695 -105.06483316 -2.95566052 0 0 Z " fill="#FBDC05" transform="translate(1768.3962173461914,238.39883041381836)"/>
<path d="M0 0 C13.53 0 27.06 0 41 0 C40.9278125 3.91359375 40.855625 7.8271875 40.78125 11.859375 C40.68569661 17.15621872 40.59224375 22.45309776 40.5 27.75 C40.48812275 28.43181839 40.4762455 29.11363678 40.46400833 29.81611633 C40.08161091 51.87872977 39.85115109 73.93372115 40 96 C53.11958316 69.98139942 53.11958316 69.98139942 65.83251953 43.76318359 C72.77058329 29.11915388 79.91248499 14.57193086 87 0 C99.87 0 112.74 0 126 0 C127.125 6.75 127.125 6.75 127.34803772 10.17623901 C127.4258271 11.33714302 127.4258271 11.33714302 127.50518799 12.52149963 C127.55769714 13.35084518 127.6102063 14.18019073 127.66430664 15.03466797 C127.72297409 15.92311905 127.78164154 16.81157013 127.84208679 17.72694397 C128.03429838 20.64851276 128.22225167 23.57033881 128.41015625 26.4921875 C128.54298561 28.52387178 128.6760816 30.55553864 128.80943298 32.58718872 C129.15896368 37.92333166 129.50487867 43.25970304 129.85003662 48.59613037 C130.20317596 54.04600057 130.55974067 59.49564654 130.91601562 64.9453125 C131.6140263 75.62999187 132.3082167 86.31491575 133 97 C144.63023816 68.71121764 144.63023816 68.71121764 156.16253662 40.38244629 C157.05938886 38.16570941 157.95764438 35.94954387 158.85595703 33.73339844 C162.55245741 24.60860858 166.2323673 15.47725299 169.83203125 6.3137207 C171.8924068 1.1075932 171.8924068 1.1075932 173 0 C176.10251201 -0.08874135 179.1826812 -0.11518455 182.28515625 -0.09765625 C183.21597519 -0.0962413 184.14679413 -0.09482635 185.1058197 -0.09336853 C188.09141191 -0.08775172 191.07693029 -0.0751964 194.0625 -0.0625 C196.08137913 -0.05748716 198.10025943 -0.05292388 200.11914062 -0.04882812 C205.07945572 -0.03777683 210.03971532 -0.02050095 215 0 C212.79779779 6.94238441 210.15321701 13.58220479 207.265625 20.265625 C206.56699341 21.8942321 206.56699341 21.8942321 205.85424805 23.55574036 C204.32312379 27.1220638 202.78664645 30.68605286 201.25 34.25 C200.44282486 36.12680876 199.63623412 38.00386791 198.8297081 39.8809557 C190.87932092 58.3832139 182.86616966 76.8582001 174.83087158 95.32373047 C166.78979433 113.80366877 158.86758155 132.33223707 151.02832031 150.89868164 C150.6275528 151.84548294 150.22678528 152.79228424 149.81387329 153.76777649 C149.06566933 155.5355193 148.31944911 157.30410348 147.57553101 159.07365417 C145.11267244 164.88732756 145.11267244 164.88732756 144 166 C142.61839885 166.0927833 141.23211962 166.11747043 139.84741211 166.11352539 C138.96657455 166.11344986 138.085737 166.11337433 137.1782074 166.11329651 C136.22092239 166.10813522 135.26363739 166.10297394 134.27734375 166.09765625 C133.30213272 166.0962413 132.32692169 166.09482635 131.32215881 166.09336853 C128.19390857 166.08775133 125.06572877 166.07519593 121.9375 166.0625 C119.82226666 166.05748722 117.70703219 166.05292393 115.59179688 166.04882812 C110.39450704 166.03777631 105.19725855 166.02102146 100 166 C99.34204833 155.21133804 98.68971016 144.42235201 98.04424286 133.63293552 C97.7442527 128.6212531 97.44243811 123.60969537 97.13623047 118.59838867 C96.83996625 113.74864948 96.54878628 108.89862777 96.26091003 104.04838371 C96.15105145 102.21183631 96.03946001 100.37539158 95.92597961 98.53906441 C95.21487374 87.00919546 94.85226269 75.55206103 95 64 C94.34 64 93.68 64 93 64 C92.6184375 65.25554687 92.236875 66.51109375 91.84375 67.8046875 C89.93217684 73.52824124 87.25672038 78.76942534 84.5 84.125 C83.40851877 86.27651383 82.31871162 88.42887764 81.23046875 90.58203125 C80.68438965 91.66178223 80.13831055 92.7415332 79.57568359 93.85400391 C77.2597737 98.47792936 75.02947078 103.14051153 72.8125 107.8125 C69.47596698 114.83737309 66.11029937 121.84709138 62.70703125 128.83984375 C62.33026749 129.61411209 61.95350372 130.38838043 61.56532288 131.18611145 C59.68732457 135.04412519 57.80720387 138.90109272 55.92504883 142.75708008 C55.2234333 144.19741048 54.52185304 145.63775807 53.8203125 147.078125 C53.50919022 147.71390976 53.19806793 148.34969452 52.8775177 149.00474548 C50.1416249 154.62686081 47.59060206 160.30067546 45 166 C30.48 166 15.96 166 1 166 C0.8270055 153.14589078 0.65802257 140.29179386 0.5 127.4375 C0.48812275 126.47180462 0.4762455 125.50610924 0.46400833 124.51115036 C0.09606717 94.36097675 -0.09237976 64.21491708 -0.0625 34.0625 C-0.06164398 33.19230602 -0.06078796 32.32211205 -0.05990601 31.42554855 C-0.04880955 20.95033107 -0.02589311 10.47520245 0 0 Z " fill="#000000" transform="translate(1558,517)"/>
<path d="M0 0 C-0.93999405 1.26364642 -1.88144279 2.5262108 -2.82348633 3.78833008 C-3.6096508 4.84314323 -3.6096508 4.84314323 -4.41169739 5.91926575 C-6.72138594 8.94504185 -9.18789672 11.81833172 -11.6875 14.6875 C-12.74386714 15.90983006 -13.79984827 17.13249381 -14.85546875 18.35546875 C-15.38188965 18.96438965 -15.90831055 19.57331055 -16.45068359 20.20068359 C-18.81917491 22.95135819 -21.16017624 25.72493927 -23.5 28.5 C-26.84239931 32.46142932 -30.20323801 36.40592088 -33.58422852 40.33447266 C-43.02064267 50.80370551 -43.02064267 50.80370551 -51.31525898 62.11244774 C-53 64 -53 64 -55.19155407 64.50222206 C-56.05092225 64.5033116 -56.91029043 64.50440113 -57.79570007 64.50552368 C-58.78628198 64.51654051 -59.77686388 64.52755733 -60.79746342 64.538908 C-61.88612422 64.53074121 -62.97478502 64.52257442 -64.09643555 64.51416016 C-65.8233911 64.52492427 -65.8233911 64.52492427 -67.58523464 64.53590584 C-71.43590397 64.55547038 -75.28601564 64.54699911 -79.13671875 64.5390625 C-81.85116758 64.54590972 -84.56557459 64.55907842 -87.27999878 64.57232666 C-93.06698108 64.59782753 -98.85386421 64.61035658 -104.64089966 64.61419678 C-113.70400719 64.62091669 -122.7668472 64.65800948 -131.82983398 64.70361328 C-132.95270512 64.70924258 -132.95270512 64.70924258 -134.09826052 64.71498561 C-137.86749307 64.73401762 -141.6367226 64.75356559 -145.40595055 64.77348709 C-148.41673099 64.78931354 -151.42751381 64.80421504 -154.43830299 64.81827927 C-178.81929272 64.9323331 -203.1894107 65.21488507 -227.5625 65.875 C-228.72545467 65.90613766 -228.72545467 65.90613766 -229.91190338 65.93790436 C-275.38402754 67.16289574 -320.87031303 68.91809447 -366.28930664 71.44140625 C-367.34019974 71.49927055 -367.34019974 71.49927055 -368.412323 71.55830383 C-370.20818981 71.65805262 -372.00388585 71.76086418 -373.79956055 71.86401367 C-377.20333897 72.00863985 -380.59356179 72.02290178 -384 72 C-382.44069966 66.91020832 -379.30364824 63.43363771 -375.9375 59.4375 C-374.75086746 58.00404006 -373.5659802 56.56913363 -372.3828125 55.1328125 C-371.80305664 54.42930664 -371.22330078 53.72580078 -370.62597656 53.00097656 C-368.44834902 50.32112141 -366.37379722 47.58306078 -364.3125 44.8125 C-363.64230835 43.93071075 -362.9721167 43.04892151 -362.28161621 42.14041138 C-359.95624607 39.03269779 -359.95624607 39.03269779 -358.00109863 35.69381714 C-354.79559204 30.58096421 -352.02453687 26.78192734 -346.27001953 24.55938721 C-341.77493406 23.59989316 -337.2335376 23.30994229 -332.65625 23.0078125 C-330.92350525 22.84896341 -329.19123955 22.68481348 -327.4594574 22.51579285 C-322.78712586 22.07476307 -318.11164213 21.70758285 -313.43198776 21.35403824 C-308.4711366 20.96651117 -303.51649126 20.51111459 -298.56079102 20.06323242 C-290.36903859 19.33139898 -282.1748145 18.63996547 -273.97705078 17.97900391 C-263.82081737 17.15947195 -253.67282044 16.26637262 -243.52612305 15.33687401 C-180.84345928 9.60370008 -118.03005835 5.31765957 -55.18888092 1.75652695 C-52.91684341 1.62737849 -50.64490878 1.49653368 -48.37298584 1.36538696 C-32.24088993 0.43881549 -16.16348017 -0.26586914 0 0 Z " fill="#FBDC05" transform="translate(1369,242)"/>
<path d="M0 0 C5.46243138 -0.19809361 10.92276519 -0.34307407 16.38793945 -0.43945312 C18.2457318 -0.47963212 20.10327196 -0.53418925 21.96020508 -0.60351562 C24.6342581 -0.70083198 27.30496552 -0.7459756 29.98046875 -0.78125 C30.80773972 -0.82254028 31.63501068 -0.86383057 32.48735046 -0.90637207 C34.8970972 -0.90823781 36.72624471 -0.80580453 39 0 C41.29301223 2.37949294 42.60901028 5.02517578 44 8 C44.57886963 9.06299316 45.15773926 10.12598633 45.75415039 11.22119141 C46.28000732 12.25421387 46.80586426 13.28723633 47.34765625 14.3515625 C47.94626465 15.52041992 48.54487305 16.68927734 49.16162109 17.89355469 C49.47121765 18.50146851 49.78081421 19.10938232 50.09979248 19.73571777 C55.33509186 30.0098227 60.69440797 40.19775177 66.27929688 50.28686523 C69.42289422 56.00646596 72.44766697 61.77898486 75.41796875 67.58984375 C75.80140442 68.33926239 76.18484009 69.08868103 76.57989502 69.86080933 C78.49621009 73.61014106 80.40428712 77.36341445 82.30224609 81.12207031 C83.00473636 82.50202769 83.70736662 83.88191381 84.41015625 85.26171875 C84.72840866 85.89818832 85.04666107 86.5346579 85.3745575 87.19041443 C87.00618391 90.3811342 88.42153643 92.42153643 91 95 C97.6 63.65 104.2 32.3 111 0 C123.87 0 136.74 0 150 0 C149.40011186 5.39899323 148.83492716 10.31388332 147.72305298 15.55099487 C147.46517502 16.77593658 147.20729706 18.0008783 146.94160461 19.26293945 C146.65728233 20.59181534 146.37287081 21.92067214 146.08837891 23.24951172 C145.78732025 24.67131989 145.48663583 26.09320735 145.18629456 27.51516724 C144.37408114 31.35495458 143.55643554 35.19356605 142.7375989 39.03194571 C141.87807832 43.06474733 141.02303117 47.09849763 140.16732788 51.1321106 C138.72950727 57.90626982 137.28818696 64.67967714 135.84472656 71.45263672 C134.18099843 79.25931973 132.52260614 87.06712138 130.86713278 94.87555873 C129.26884172 102.41374731 127.66693033 109.95116209 126.06333542 117.48822403 C125.38365139 120.68305948 124.70517731 123.87814822 124.02769852 127.073452 C123.22788304 130.84487704 122.42486365 134.61560662 121.61947441 138.38584518 C121.32615427 139.76134859 121.03388179 141.13707593 120.74279594 142.51305389 C120.34179718 144.40767783 119.9364248 146.30137444 119.53091431 148.19503784 C119.30637384 149.24986296 119.08183338 150.30468807 118.85048866 151.39147758 C117.69525478 156.29299778 116.32501144 161.14162473 115 166 C102.79 166 90.58 166 78 166 C76.74445313 163.54949219 75.48890625 161.09898437 74.1953125 158.57421875 C63.48119689 137.62946512 63.48119689 137.62946512 52.57885742 116.7824707 C48.98897776 110.00210593 45.4633237 103.18884003 41.9375 96.375 C36.68118637 86.2197083 31.37968277 76.09046319 26 66 C22.09785995 83.26647362 18.29354443 100.5528737 14.609375 117.8671875 C14.46342581 118.55299959 14.31747662 119.23881168 14.16710472 119.94540596 C12.68675088 126.90371765 11.20999048 133.86278369 9.73815727 140.82290268 C9.31458072 142.82497537 8.89029849 144.82689711 8.46575928 146.82876587 C7.93931615 149.31207057 7.41431111 151.79568068 6.89093018 154.27963257 C6.65630066 155.38561798 6.42167114 156.49160339 6.17993164 157.63110352 C5.87304161 159.08372337 5.87304161 159.08372337 5.55995178 160.56568909 C5 163 5 163 4 166 C-8.87 166 -21.74 166 -35 166 C-32.74996445 152.49978673 -32.74996445 152.49978673 -31.64076233 147.29151917 C-31.38992386 146.10741455 -31.13908539 144.92330994 -30.88064575 143.70332336 C-30.61202728 142.44843613 -30.34340881 141.19354889 -30.06665039 139.90063477 C-29.77543671 138.53086008 -29.48445335 137.1610364 -29.19367981 135.79116821 C-28.4109036 132.10672385 -27.62486422 128.4229829 -26.83813405 124.73938107 C-26.01029481 120.86080853 -25.18532215 116.98162622 -24.35997009 113.1025238 C-22.97394822 106.59034628 -21.58591578 100.07859997 -20.1965332 93.56713867 C-18.59698716 86.0706682 -17.00004042 78.57364792 -15.404625 71.07629734 C-13.69668712 63.05023298 -11.98703868 55.02453374 -10.27679133 46.99896121 C-9.7882933 44.70613043 -9.30008605 42.41323789 -8.81193733 40.12033272 C-8.04061784 36.49782143 -7.26812598 32.87556192 -6.49477959 29.25348282 C-6.08076407 27.31320971 -5.66779951 25.37271245 -5.25488281 23.4322052 C-3.58161398 15.60260251 -1.8248245 7.7956704 0 0 Z " fill="#000000" transform="translate(1599,758)"/>
<path d="M0 0 C16.5427213 13.31707664 25.71751841 30.04051178 29.75 50.875 C29.86656748 52.24758204 29.94353374 53.62363486 30 55 C30.0515625 56.13566406 30.103125 57.27132812 30.15625 58.44140625 C30.78792141 85.36640004 21.78189912 108.72542342 3.40576172 128.546875 C-13.55385908 146.07790365 -37.00705157 155.65216997 -61.19750977 156.28100586 C-83.69935846 156.55201123 -105.05770413 150.05101512 -121.70019531 134.38891602 C-137.86389017 118.53195794 -145.12436896 99.12313601 -145.4375 76.6875 C-145.31878875 52.39566026 -136.02287398 31.12659664 -120 13 C-119.17242188 12.04673828 -119.17242188 12.04673828 -118.328125 11.07421875 C-88.98822019 -20.51701539 -34.36481329 -26.03546087 0 0 Z M-87.875 35.9375 C-98.95203435 47.79990754 -103.59294651 62.14186066 -103.3046875 78.15625 C-102.37097705 89.93536647 -97.66389568 99.80102728 -88.984375 107.875 C-87.0525405 109.39612952 -85.09512196 110.7154907 -83 112 C-82.4328125 112.38800781 -81.865625 112.77601563 -81.28125 113.17578125 C-72.68169832 118.36191439 -60.07633396 119.02958398 -50.515625 116.75390625 C-37.13460635 112.74375625 -26.72195564 105.23021351 -19.2734375 93.21484375 C-12.07352588 79.75491045 -9.90580765 65.68526354 -13.94921875 50.9296875 C-15.65244017 46.18092888 -18.14208141 42.13404801 -21 38 C-21.598125 37.0925 -22.19625 36.185 -22.8125 35.25 C-30.84795312 26.9849625 -41.52196553 22.52986647 -52.9375 21.9765625 C-66.37945801 22.07943463 -78.01528925 26.88238528 -87.875 35.9375 Z " fill="#000000" transform="translate(1532,771)"/>
<path d="M0 0 C15.98099377 13.74330225 26.43047533 32.02017172 28.10986328 53.19287109 C29.45702556 80.72036975 21.32593335 104.9437972 2.8984375 125.52734375 C2.34800781 126.16027344 1.79757812 126.79320312 1.23046875 127.4453125 C-13.18955832 143.00469973 -36.31037714 153.49804846 -57.37915039 154.65209961 C-83.12225051 155.46809004 -104.16598005 149.79421668 -123.9140625 132.65234375 C-138.61123144 118.7998397 -146.43905245 99.47477822 -147.22265625 79.4296875 C-147.72492401 52.75040584 -138.88871477 29.44698478 -120.61425781 10.06689453 C-89.46666409 -21.63367455 -35.62741309 -28.40321472 0 0 Z M-89.77734375 35.07421875 C-100.4317847 46.31957827 -105.71877121 60.19419828 -105.34765625 75.671875 C-104.23957283 88.52916034 -99.14583778 98.63999795 -89.36328125 107.015625 C-79.99094663 114.58486518 -70.09719522 116.9819103 -58.1640625 116.37890625 C-44.01482383 114.68551332 -32.90502308 107.42896243 -24.1015625 96.52734375 C-15.3555334 83.35453352 -11.85342923 68.71601811 -14.75 53.01171875 C-18.2180193 40.50313631 -25.34734964 31.23410117 -36.5390625 24.77734375 C-54.9501025 16.17248742 -75.45450179 21.49337645 -89.77734375 35.07421875 Z " fill="#000000" transform="translate(817.1015625,772.47265625)"/>
<path d="M0 0 C13.33969317 11.51511508 22.98894962 26.46011191 26.3828125 43.90625 C26.65544922 45.21916016 26.65544922 45.21916016 26.93359375 46.55859375 C30.20972682 70.97290715 24.78800827 95.77526537 10.25 115.8515625 C8.03879329 118.61749703 5.75218524 121.2749568 3.3828125 123.90625 C2.70734375 124.67582031 2.031875 125.44539062 1.3359375 126.23828125 C-14.25739221 142.974731 -37.39045829 153.14176773 -60.12109375 154.25 C-84.80993642 154.91117541 -106.82821726 148.38624385 -125.26269531 131.4465332 C-138.6865205 118.3897314 -146.57888292 99.46987728 -147.6171875 80.90625 C-147.67003906 80.06320312 -147.72289062 79.22015625 -147.77734375 78.3515625 C-148.53155077 54.67602048 -140.5007865 31.56074769 -124.6171875 13.90625 C-124.18809082 13.42800781 -123.75899414 12.94976563 -123.31689453 12.45703125 C-92.07841187 -21.85788511 -37.07339429 -29.65871543 0 0 Z M-76.6171875 24.90625 C-77.92236328 25.57720703 -77.92236328 25.57720703 -79.25390625 26.26171875 C-91.9724543 33.35292716 -99.72586363 44.31037971 -103.90625 58.19140625 C-104.75966723 61.4503347 -105.36339881 64.54354981 -105.6171875 67.90625 C-105.66875 68.55464844 -105.7203125 69.20304688 -105.7734375 69.87109375 C-106.25788938 81.03367246 -102.98425058 90.84935813 -96.6171875 99.90625 C-96.0190625 100.81375 -95.4209375 101.72125 -94.8046875 102.65625 C-86.25075143 111.45458424 -75.27829242 115.47613157 -63.203125 116 C-50.35821336 115.66418532 -38.8155037 110.63238256 -29.45703125 101.8671875 C-18.42587904 90.10999343 -14.04044273 75.99325924 -14.34375 60.1171875 C-14.86778624 48.69734828 -19.53903561 38.87920311 -27.6484375 30.91015625 C-38.47427166 21.79056769 -49.70388053 19.64223669 -63.46875 20.66259766 C-68.28443946 21.20874062 -72.34624993 22.67763476 -76.6171875 24.90625 Z " fill="#000000" transform="translate(1194.6171875,532.09375)"/>
<path d="M0 0 C8.88503656 -0.06997549 17.76997606 -0.12304983 26.65522957 -0.15543652 C30.78246016 -0.1709923 34.90950015 -0.19204234 39.03662109 -0.22631836 C43.03075874 -0.25927664 47.02471482 -0.27692852 51.01897812 -0.28463173 C52.5313693 -0.29011065 54.04375225 -0.30080626 55.55606461 -0.31719017 C78.18599062 -0.55226714 98.67901448 6.00818342 115.3125 21.6875 C129.79877058 37.10298859 136.6789249 56.33828871 136.24609375 77.49609375 C134.57366245 101.30832993 125.6507396 120.88759479 109 138 C108.41605469 138.63421875 107.83210937 139.2684375 107.23046875 139.921875 C94.09373419 153.82773922 71.38423072 165.21401831 52.03845596 166.08868599 C49.74130806 166.12259224 47.44630329 166.12371446 45.14892578 166.11352539 C43.84550987 166.11374443 43.84550987 166.11374443 42.51576233 166.1139679 C39.65891985 166.11327421 36.80214351 166.10550735 33.9453125 166.09765625 C31.95848628 166.09579014 29.97165961 166.09436715 27.98483276 166.09336853 C22.76687337 166.08955857 17.54894201 166.0797413 12.33099365 166.06866455 C7.00191629 166.05841769 1.67283438 166.0538639 -3.65625 166.04882812 C-14.10417895 166.03811764 -24.55208714 166.02105953 -35 166 C-33.73709963 157.20490826 -32.15585001 148.53208828 -30.28198242 139.84790039 C-30.01662186 138.60362274 -29.75126129 137.35934509 -29.4778595 136.07736206 C-28.75790118 132.70206612 -28.03336491 129.32776861 -27.30785537 125.95366216 C-26.54158708 122.38643566 -25.77940319 118.81833633 -25.01667786 115.25035095 C-23.73392285 109.25254285 -22.44836377 103.25534151 -21.16088867 97.25854492 C-19.68555626 90.386677 -18.21371568 83.51406918 -16.74400443 76.64099699 C-15.16360209 69.25031349 -13.58102312 61.8600974 -11.99760652 54.47005916 C-11.54915847 52.37655197 -11.1010502 50.2829723 -10.6530056 48.18937874 C-7.20903541 32.10120269 -3.69697044 16.03213554 0 0 Z M33 37 C30.51785197 48.40364083 28.04014429 59.80823641 25.56812286 71.214077 C24.42016266 76.51005857 23.27066746 81.80569729 22.11767578 87.10058594 C21.0053263 92.20910376 19.89699398 97.3184779 18.79145813 102.42847443 C18.36867141 104.3792458 17.94443071 106.32970264 17.51872253 108.27983856 C16.92335918 111.00833528 16.33314472 113.73789797 15.74414062 116.46777344 C15.47764458 117.68049927 15.47764458 117.68049927 15.20576477 118.91772461 C14.46273885 122.38466405 14 125.43621797 14 129 C19.22864743 129.07476069 24.45697628 129.12888763 29.68603516 129.16479492 C31.46082996 129.17978093 33.23558837 129.20017682 35.01025391 129.22631836 C51.86214185 129.46814343 65.23064664 127.33361503 78.25 115.4375 C88.81141074 104.03823204 93.76497163 89.9562697 93.33984375 74.515625 C92.221518 62.94673794 87.67925006 52.87186818 78.8671875 45.125 C68.71098743 37.84456984 58.56002874 36.4198437 46.3125 36.75 C45.02666016 36.76804687 43.74082031 36.78609375 42.41601562 36.8046875 C39.27653995 36.85137115 36.13868509 36.91683908 33 37 Z " fill="#000000" transform="translate(207,517)"/>
<path d="M0 0 C11.39687062 -0.06976062 22.79368975 -0.12294303 34.19073105 -0.15543652 C39.48383928 -0.17103815 44.77680054 -0.19217511 50.06982422 -0.22631836 C55.1856555 -0.25910903 60.30134614 -0.27689431 65.41727448 -0.28463173 C67.36113954 -0.29014005 69.30499761 -0.30089569 71.24880219 -0.31719017 C88.98599721 -0.45985388 104.53998507 1.31906725 118.15234375 13.953125 C128.28025109 25.17304771 131.34523568 37.3210409 131.21484375 52.11328125 C130.35589119 67.6525139 122.97454322 80.47701767 111.9375 91.125 C107.1104848 95.29340691 101.77367706 97.86853907 96.0390625 100.5546875 C92.92399408 101.94697074 92.92399408 101.94697074 90 104 C90.28592514 104.71774597 90.57185028 105.43549194 90.86643982 106.17498779 C93.5617244 112.94216154 96.25456463 119.71030033 98.94467068 126.47953415 C100.32773489 129.95954981 101.71173823 133.43918578 103.09790039 136.91796875 C104.43580466 140.27574223 105.77122547 143.63449353 107.1049366 146.99393463 C107.61398216 148.27488526 108.12391868 149.55548219 108.63476372 150.83571625 C109.35058867 152.63009613 110.06294243 154.42585957 110.77514648 156.22167969 C111.1815184 157.24316101 111.58789032 158.26464233 112.00657654 159.31707764 C113 162 113 162 114 166 C99.48 166 84.96 166 70 166 C67.39122341 158.62787687 64.78334891 151.25554347 62.18414307 143.88005829 C60.97351487 140.44561657 59.76122772 137.01178124 58.54492188 133.5793457 C57.37372422 130.2740033 56.20709885 126.96708016 55.04364014 123.65900612 C54.38204035 121.78169596 53.71570312 119.90605757 53.04931641 118.03044128 C52.64890137 116.88948502 52.24848633 115.74852875 51.8359375 114.57299805 C51.30299072 113.06409248 51.30299072 113.06409248 50.75927734 111.52470398 C50 109 50 109 50 106 C34.655 106.495 34.655 106.495 19 107 C18.14535156 111.09148437 17.29070312 115.18296875 16.41015625 119.3984375 C15.72801384 122.65629364 15.04531414 125.91403187 14.36223602 129.17169189 C13.64083971 132.61285838 12.92043179 136.05422506 12.20239258 139.49609375 C11.37887237 143.44335303 10.5508897 147.38966447 9.72265625 151.3359375 C9.33667015 153.19066177 9.33667015 153.19066177 8.94288635 155.08285522 C8.70271286 156.22388702 8.46253937 157.36491882 8.21508789 158.54052734 C8.00412979 159.548685 7.79317169 160.55684265 7.57582092 161.59555054 C7 164 7 164 6 166 C-7.53 166 -21.06 166 -35 166 C-31.46707588 147.28880258 -27.65745555 128.65128355 -23.6700182 110.03312731 C-22.87190246 106.3039207 -22.07674219 102.57408377 -21.28118896 98.84432983 C-19.95172987 92.61345831 -18.6203628 86.3829972 -17.28759766 80.15283203 C-15.57814003 72.16173659 -13.87181107 64.16997641 -12.16646194 56.17800331 C-10.69131733 49.26490807 -9.2149362 42.352077 -7.73826504 35.43930769 C-7.2666116 33.23118141 -6.79509572 31.02302579 -6.32358551 28.81486893 C-5.4487342 24.71834311 -4.57260029 20.62209267 -3.69628906 16.52587891 C-3.43656815 15.30940674 -3.17684723 14.09293457 -2.90925598 12.83959961 C-2.67109665 11.72735016 -2.43293732 10.61510071 -2.18756104 9.46914673 C-1.98112095 8.50369242 -1.77468086 7.53823811 -1.56198502 6.5435276 C-1.0776032 4.35122978 -0.55834344 2.17445294 0 0 Z M34 36 C32.535865 40.17850711 31.415944 44.31163633 30.4921875 48.640625 C30.22792969 49.87554688 29.96367188 51.11046875 29.69140625 52.3828125 C29.28728516 54.29707031 29.28728516 54.29707031 28.875 56.25 C28.59531924 57.55474479 28.31537369 58.85943286 28.03515625 60.1640625 C26.60341719 66.03093588 26.60341719 66.03093588 26 72 C32.22553948 72.09948619 38.45060782 72.17175931 44.67675781 72.21972656 C46.79109772 72.23974016 48.90538299 72.26695972 51.01953125 72.30175781 C54.07305448 72.35072941 57.12584078 72.37307182 60.1796875 72.390625 C61.11239471 72.41127014 62.04510193 72.43191528 63.006073 72.45318604 C70.58101811 72.45572839 77.51961593 70.86458152 83.47265625 65.96484375 C83.99730469 65.29582031 84.52195312 64.62679687 85.0625 63.9375 C85.61035156 63.26589844 86.15820312 62.59429688 86.72265625 61.90234375 C89.75840913 57.38120719 89.58878658 52.24183605 89 47 C86.50665497 42.01330993 83.00649051 38.50324526 78 36 C76.58026727 35.91065594 75.15642209 35.88241022 73.73388672 35.88647461 C72.85312469 35.88655014 71.97236267 35.88662567 71.06491089 35.88670349 C70.11278717 35.89186478 69.16066345 35.89702606 68.1796875 35.90234375 C66.71899338 35.90446617 66.71899338 35.90446617 65.22879028 35.90663147 C62.11082927 35.91224027 58.9929394 35.92479427 55.875 35.9375 C53.76432395 35.94251387 51.65364678 35.94707697 49.54296875 35.95117188 C44.36195479 35.96221255 39.18098248 35.97895927 34 36 Z " fill="#000000" transform="translate(1950,517)"/>
<path d="M0 0 C0 3.43561862 -0.50166078 4.04493507 -2.5 6.7109375 C-3.05010742 7.45150391 -3.60021484 8.19207031 -4.16699219 8.95507812 C-4.77188477 9.75365234 -5.37677734 10.55222656 -6 11.375 C-6.6177832 12.20193359 -7.23556641 13.02886719 -7.87207031 13.88085938 C-13.48031155 21.36784743 -19.15343225 28.80718363 -24.84375 36.23193359 C-25.48828125 37.07320801 -26.1328125 37.91448242 -26.796875 38.78125 C-27.36760742 39.52439453 -27.93833984 40.26753906 -28.52636719 41.03320312 C-29.7377877 42.65003607 -30.87932871 44.31899306 -32 46 C-33.78593445 46.48251343 -33.78593445 46.48251343 -36.00268555 46.63818359 C-36.85288773 46.70510406 -37.7030899 46.77202454 -38.57905579 46.8409729 C-39.52620956 46.90118622 -40.47336334 46.96139954 -41.44921875 47.0234375 C-42.46134933 47.0995224 -43.47347992 47.1756073 -44.51628113 47.2539978 C-46.78090108 47.42286447 -49.04600387 47.58533692 -51.3114624 47.74255371 C-55.13803502 48.00963433 -58.96277736 48.29584975 -62.78759766 48.58691406 C-64.16509733 48.69171723 -65.54259983 48.79648339 -66.92010498 48.9012146 C-67.62113091 48.95452312 -68.32215683 49.00783165 -69.04442596 49.06275558 C-72.00290505 49.2868461 -74.9616126 49.50784408 -77.92031097 49.72901726 C-158.26599128 55.74148081 -238.38614543 64.0855203 -732.22143555 142.49609375 C-733.35551849 142.73481705 -734.48960144 142.97354034 -735.65805054 143.21949768 C-737.75481469 143.66188164 -739.85113857 144.1063596 -741.94692993 144.55332947 C-742.8562326 144.74576736 -743.76553528 144.93820526 -744.70239258 145.13647461 C-745.49003494 145.30441025 -746.27767731 145.47234589 -747.08918762 145.64537048 C-749 146 -749 146 -751 146 C-750.505 144.02 -750.505 144.02 -750 142 C-731.530748 136.95733324 -713.01177792 132.14037283 -694.4375 127.5 C-693.7576429 127.3300288 -693.0777858 127.1600576 -692.37732697 126.98493576 C-617.04491345 108.15971581 -541.11391186 91.71716143 -68.125 8.5 C-67.37216484 8.39789719 -66.61932968 8.29579437 -65.84368134 8.19059753 C-43.92278013 5.21931421 -21.97729418 2.51995144 0 0 Z " fill="#FBDC05" transform="translate(998,269)"/>
<path d="M0 0 C42.57 0 85.14 0 129 0 C127.65000251 12.14997742 124.65192001 24.06635996 122 36 C92.63 36 63.26 36 33 36 C32.67 38.97 32.34 41.94 32 45 C31.72059929 46.58821106 31.41599441 48.17271496 31.0625 49.74609375 C30.88976563 50.52017578 30.71703125 51.29425781 30.5390625 52.09179688 C30.27222656 53.25291992 30.27222656 53.25291992 30 54.4375 C29.82210937 55.23865234 29.64421875 56.03980469 29.4609375 56.86523438 C28.13827285 62.7234543 28.13827285 62.7234543 27 65 C46.14 65 65.28 65 85 65 C83.87373396 75.13639433 83.87373396 75.13639433 82.84375 80.05859375 C82.51697266 81.62577148 82.51697266 81.62577148 82.18359375 83.22460938 C81.84521484 84.81499023 81.84521484 84.81499023 81.5 86.4375 C81.16162109 88.06848633 81.16162109 88.06848633 80.81640625 89.73242188 C79.13375235 97.7324953 79.13375235 97.7324953 78 100 C58.86 100 39.72 100 20 100 C18.35 108.25 16.7 116.5 15 125 C14.67 126.65 14.34 128.3 14 130 C43.37 130 72.74 130 103 130 C96 164 96 164 95 166 C52.1 166 9.2 166 -35 166 C-32.74996049 151.37474319 -32.74996049 151.37474319 -31.55137634 145.76229858 C-31.28081924 144.48664032 -31.01026215 143.21098206 -30.73150635 141.89666748 C-30.43818277 140.53184479 -30.14478434 139.16703818 -29.85131836 137.80224609 C-29.53706716 136.32744881 -29.22313723 134.85258303 -28.90950012 133.37765503 C-28.06583715 129.41481558 -27.2176164 125.45296495 -26.36841273 121.49130964 C-25.4775593 117.33194269 -24.59067609 113.1717291 -23.70326233 109.0116272 C-22.21541473 102.0396017 -20.72473654 95.06818634 -19.23217773 88.09716797 C-17.50660772 80.03777001 -15.78484636 71.97756596 -14.06524557 63.91689241 C-12.2308511 55.31826606 -10.39383621 46.72020114 -8.55597615 38.12231493 C-8.02725627 35.64802814 -7.49901299 33.17363999 -6.97086906 30.69923019 C-6.14266994 26.81971091 -5.31270812 22.9405728 -4.48136711 19.06172562 C-4.17641598 17.63760158 -3.87204869 16.21335239 -3.56830215 14.78897095 C-3.15434132 12.84826177 -2.73805389 10.9080493 -2.32164001 8.96786499 C-1.97295065 7.33811265 -1.97295065 7.33811265 -1.61721706 5.67543602 C-1 3 -1 3 0 0 Z " fill="#000000" transform="translate(2111,517)"/>
<path d="M0 0 C42.57 0 85.14 0 129 0 C127.65000251 12.14997742 124.65192001 24.06635996 122 36 C92.63 36 63.26 36 33 36 C32.67 38.97 32.34 41.94 32 45 C31.72059929 46.58821106 31.41599441 48.17271496 31.0625 49.74609375 C30.88976562 50.52017578 30.71703125 51.29425781 30.5390625 52.09179688 C30.27222656 53.25291992 30.27222656 53.25291992 30 54.4375 C29.82210937 55.23865234 29.64421875 56.03980469 29.4609375 56.86523438 C28.13827285 62.7234543 28.13827285 62.7234543 27 65 C46.14 65 65.28 65 85 65 C83.87373396 75.13639433 83.87373396 75.13639433 82.84375 80.05859375 C82.51697266 81.62577148 82.51697266 81.62577148 82.18359375 83.22460938 C81.84521484 84.81499023 81.84521484 84.81499023 81.5 86.4375 C81.16162109 88.06848633 81.16162109 88.06848633 80.81640625 89.73242188 C79.13375235 97.7324953 79.13375235 97.7324953 78 100 C49.29 100.495 49.29 100.495 20 101 C18.02 110.57 16.04 120.14 14 130 C43.04 130 72.08 130 102 130 C100.87399131 141.2600869 100.87399131 141.2600869 99.84375 146.15625 C99.62589844 147.1978125 99.40804687 148.239375 99.18359375 149.3125 C98.84521484 150.8903125 98.84521484 150.8903125 98.5 152.5 C98.27441406 153.5828125 98.04882812 154.665625 97.81640625 155.78125 C96.13886634 163.72226732 96.13886634 163.72226732 95 166 C52.1 166 9.2 166 -35 166 C-34.40672524 161.25380188 -33.83882603 156.82937907 -32.85713196 152.20169067 C-32.51468193 150.57555344 -32.51468193 150.57555344 -32.16531372 148.91656494 C-31.91651459 147.75187683 -31.66771545 146.58718872 -31.41137695 145.38720703 C-31.01596458 143.51689316 -31.01596458 143.51689316 -30.61256409 141.60879517 C-29.89217599 138.20201596 -29.16762572 134.79613453 -28.44218087 131.39042902 C-27.67678259 127.79425723 -26.91483915 124.19735329 -26.15238953 120.60055542 C-24.86766937 114.54261597 -23.58028504 108.48524742 -22.29125977 102.42822266 C-20.81621145 95.49695733 -19.34508115 88.56486988 -17.87620193 81.63229477 C-16.45013729 74.9021713 -15.02138152 68.17262177 -13.59142113 61.44332504 C-12.98990854 58.61249404 -12.38923371 55.78148741 -11.78930092 52.9503212 C-10.94079875 48.94692811 -10.08833599 44.94438703 -9.2355957 40.94189453 C-8.99691772 39.81364258 -8.75823975 38.68539062 -8.5123291 37.52294922 C-5.83224859 24.97552476 -2.88646912 12.50803285 0 0 Z " fill="#000000" transform="translate(518,517)"/>
<path d="M0 0 C2.22556038 1.98578074 3.91824839 3.83270067 5.57421875 6.296875 C4.86136719 7.0703125 4.14851563 7.84375 3.4140625 8.640625 C-1.94251125 14.4620099 -7.24766108 20.3154665 -12.42578125 26.296875 C-13.7375484 27.79751592 -15.05003911 29.29752469 -16.36328125 30.796875 C-17.24306641 31.80234375 -17.24306641 31.80234375 -18.140625 32.828125 C-18.56472656 33.3128125 -18.98882813 33.7975 -19.42578125 34.296875 C-23.01761229 33.28667252 -25.20838316 31.67832717 -27.86328125 29.171875 C-41.02813716 17.29623285 -57.58990673 11.90034408 -75.1328125 12.08203125 C-81.37390109 12.48921971 -86.38417216 13.83858279 -91.48828125 17.484375 C-94.13266148 21.32299146 -94.35178624 23.63518953 -94.42578125 28.296875 C-93.50747694 30.96468919 -92.75698968 32.06824446 -90.42144775 33.68045044 C-84.27800852 36.66010655 -78.3041804 38.63425366 -71.66015625 40.1640625 C-69.61453198 40.66254973 -67.56896071 41.1612545 -65.5234375 41.66015625 C-62.35461785 42.41775798 -59.18458913 43.1698012 -56.01318359 43.91650391 C-20.40275359 52.35507321 -20.40275359 52.35507321 -9.55078125 68 C-2.23201778 80.5967179 -1.93198024 93.40482894 -5.5168457 107.35351562 C-9.82930149 122.44982995 -19.09086116 131.74403408 -32.42578125 139.296875 C-54.64127609 151.20953165 -82.29474419 150.71567554 -106.1015625 144.04296875 C-124.45966716 138.48917457 -139.22503313 129.30859058 -152.42578125 115.296875 C-151.00839636 112.04480408 -149.30051713 109.98326433 -146.73828125 107.546875 C-143.35429346 104.25451142 -140.2366609 100.83507266 -137.1640625 97.25390625 C-134.8298242 94.62592111 -132.33813829 92.18098605 -129.80859375 89.7421875 C-128.3172364 88.32577723 -128.3172364 88.32577723 -127.42578125 86.296875 C-123.75864008 86.86229324 -122.26265809 88.20857244 -119.80078125 90.921875 C-106.95695401 104.19225001 -88.99777089 112.32590323 -70.48828125 112.671875 C-62.52762469 112.37630607 -55.70996316 111.55805056 -49.42578125 106.296875 C-46.99187079 103.6133327 -45.54897489 101.71360191 -45.23046875 98.05078125 C-45.44653352 94.18067988 -45.85698137 91.95454986 -48.42578125 88.984375 C-55.37950689 85.07290433 -62.41364576 82.54663141 -70.140625 80.640625 C-71.03640762 80.41161499 -71.93219025 80.18260498 -72.8551178 79.94665527 C-75.68932097 79.22251816 -78.52593054 78.50857129 -81.36328125 77.796875 C-84.19694485 77.08476786 -87.02983612 76.37012732 -89.86073303 75.64709473 C-91.61221909 75.19979882 -93.36525215 74.75849659 -95.12010193 74.32458496 C-108.04547371 71.02553494 -120.44593437 65.78137563 -128.21484375 54.375 C-135.09142852 42.57389323 -136.59940499 28.63296537 -133.23828125 15.359375 C-128.60677008 1.18609312 -120.72933084 -8.7478142 -107.42578125 -15.703125 C-100.32190037 -18.8952145 -93.12585573 -21.46071148 -85.42578125 -22.703125 C-84.44158203 -22.86941406 -84.44158203 -22.86941406 -83.4375 -23.0390625 C-53.64483849 -27.19095883 -23.47439954 -18.49676651 0 0 Z " fill="#000000" transform="translate(1888.42578125,778.703125)"/>
<path d="M0 0 C2.26281349 2.15937059 4.1519378 4.47524714 6.05078125 6.95703125 C5.50550781 7.55128906 4.96023438 8.14554688 4.3984375 8.7578125 C0.27508559 13.28997537 -3.73239979 17.87036036 -7.57421875 22.64453125 C-11.12183211 27.0338455 -14.84259679 31.08809159 -18.94921875 34.95703125 C-22.27229586 33.46999218 -24.79325142 31.54413083 -27.57421875 29.20703125 C-42.02758367 17.57280883 -58.23228282 11.72681011 -76.94921875 12.95703125 C-82.65035491 14.00480763 -87.99817789 15.51211029 -91.94921875 19.95703125 C-93.44640258 23.53725346 -94.18692318 25.82133231 -93.38671875 29.64453125 C-90.15030446 34.85093685 -85.44292541 36.79656 -79.76171875 38.4375 C-79.0661084 38.64658493 -78.37049805 38.85566986 -77.65380859 39.0710907 C-68.75846135 41.68840699 -59.70364442 43.75583163 -50.65820312 45.78295898 C-35.68362485 49.1605512 -19.44663554 54.02437861 -9.94921875 66.95703125 C-2.86718509 78.77046612 -1.35252554 90.63510114 -3.4453125 104.1640625 C-7.15142595 118.80006987 -16.07717201 130.96343145 -28.94921875 138.95703125 C-53.07193995 151.35464796 -81.88488377 151.95838564 -107.58691406 144.18554688 C-124.38831782 138.72105001 -140.1013043 129.12955726 -151.94921875 115.95703125 C-148.15590204 110.49763033 -143.94801994 105.83180969 -139.19140625 101.1953125 C-136.46710034 98.47575276 -133.96280496 95.60701774 -131.45703125 92.6875 C-129.70987803 90.68234747 -127.86751757 88.79859812 -125.94921875 86.95703125 C-122.45014818 88.46346482 -120.12742441 90.5212199 -117.38671875 93.14453125 C-103.05241672 106.23876903 -85.56986112 113.75127941 -65.99609375 113.25 C-58.70810378 112.54923173 -50.95563105 110.58545989 -46.13671875 104.76953125 C-44.33389062 100.49967515 -44.07587537 96.30785584 -45.7277832 91.86132812 C-51.17908654 83.36239428 -68.14986258 81.76466837 -77.26171875 79.45703125 C-118.72413528 68.89462939 -118.72413528 68.89462939 -128.421875 53.640625 C-135.78006221 39.9325153 -135.0477723 25.63702152 -130.94921875 10.95703125 C-125.88356403 -2.11670468 -115.44701812 -11.19193908 -102.94921875 -17.04296875 C-69.54979381 -30.21282852 -27.59249628 -22.63633114 0 0 Z " fill="#000000" transform="translate(658.94921875,778.04296875)"/>
<path d="M0 0 C1.64340015 1.63030533 3.23421732 3.27947312 4.7734375 5.0078125 C2.4550407 9.28186375 -0.51398856 12.6443432 -3.8515625 16.1328125 C-9.26332949 21.88136682 -14.31670466 27.82089568 -19.2265625 34.0078125 C-23.22343784 33.44081391 -25.35727011 31.42613255 -28.3515625 28.8203125 C-42.54861945 17.00191813 -58.59618053 10.98589281 -77.2265625 12.0078125 C-83.13674783 12.73849269 -87.50309007 14.20599322 -92.2265625 18.0078125 C-94.35468342 21.19999388 -94.5251748 23.11200682 -94.6875 26.875 C-94.00290015 30.04272472 -92.4207532 31.64812156 -90.2265625 34.0078125 C-79.1893212 39.66926574 -65.77681446 41.69303012 -53.75439453 44.40649414 C-38.18544288 47.94382344 -21.1529698 52.46988254 -11.2265625 66.0078125 C-3.70587991 78.69696419 -2.12852197 92.01746636 -5.3515625 106.4453125 C-9.79612566 121.24693109 -19.48838368 132.06724578 -32.89257812 139.42895508 C-55.97102971 151.34173035 -84.75925162 150.36576054 -109.15014648 143.10864258 C-126.50980747 137.54299261 -141.55405928 128.0977276 -153.2265625 114.0078125 C-152.35515625 113.07582031 -151.48375 112.14382813 -150.5859375 111.18359375 C-142.76958518 102.81901576 -134.98102974 94.42978882 -127.2265625 86.0078125 C-123.52937478 87.56182674 -121.1492755 89.85431988 -118.2890625 92.6328125 C-104.07237047 105.88455979 -87.24040218 112.39059339 -67.84375 112.2265625 C-60.61286057 111.78927329 -53.36330923 110.47596224 -48.2265625 105.0078125 C-45.11476215 100.85874537 -45.96068898 95.53361099 -46.4765625 90.6328125 C-47.82810011 87.70448101 -51.08976612 87.06293228 -53.95678711 85.90771484 C-60.92639863 83.34586051 -67.91309966 81.20937267 -75.10546875 79.359375 C-75.97255463 79.13594421 -76.8396405 78.91251343 -77.73300171 78.68231201 C-81.31848962 77.76380727 -84.90538728 76.851999 -88.49780273 75.9609375 C-104.65021517 71.93490371 -120.12971819 67.28238975 -129.81640625 52.59765625 C-136.25912799 40.81401155 -136.27969595 27.54818806 -133.5078125 14.66796875 C-129.75248976 2.0908749 -121.28442247 -8.68074965 -109.70703125 -15.00390625 C-76.09270313 -32.07597416 -28.24165853 -25.26885237 0 0 Z " fill="#000000" transform="translate(1037.2265625,537.9921875)"/>
<path d="M0 0 C2.2092707 0.09544231 4.41893883 0.18211105 6.62890625 0.25976562 C12.01165862 0.46789095 17.37813536 0.79225945 22.75 1.1875 C24.96955905 10.47192221 26.89005806 19.79070439 28.66088867 29.16992188 C28.93698278 30.62187571 29.21329021 32.073789 29.48979187 33.52566528 C30.23174541 37.42546455 30.97041756 41.32587808 31.7081964 45.22646904 C32.32621785 48.49255662 32.94573215 51.75836039 33.56518823 55.02417612 C35.02565326 62.72431212 36.48327776 70.42498215 37.93920898 78.12597656 C39.43961709 86.06189636 40.94535576 93.99679211 42.45358866 101.93122816 C43.75202867 108.76316518 45.04694682 115.59576345 46.33908826 122.42889452 C47.10937417 126.50206356 47.8810437 130.57495819 48.65620995 134.64720154 C49.38340625 138.46816342 50.10621028 142.28993028 50.82563972 146.11236191 C51.09011722 147.51349997 51.35615182 148.91434516 51.62386322 150.31486893 C51.98920288 152.22746113 52.34835464 154.14123223 52.7071991 156.05505371 C52.90978427 157.124963 53.11236944 158.19487228 53.32109356 159.29720306 C53.75 162.1875 53.75 162.1875 53.75 167.1875 C39.89 167.1875 26.03 167.1875 11.75 167.1875 C11.151875 164.09375 10.55375 161 9.9375 157.8125 C9.75598389 156.88002441 9.57446777 155.94754883 9.38745117 154.98681641 C7.67778821 146.07309781 6.2439866 137.15141959 4.75 128.1875 C-15.71 128.1875 -36.17 128.1875 -57.25 128.1875 C-61.54 135.7775 -65.83 143.3675 -70.25 151.1875 C-78.93965517 165.87715517 -78.93965517 165.87715517 -80.25 167.1875 C-81.66225046 167.2803726 -83.07908934 167.30496772 -84.49438477 167.30102539 C-85.39524307 167.30094986 -86.29610138 167.30087433 -87.22425842 167.30079651 C-88.20341721 167.29563522 -89.18257599 167.29047394 -90.19140625 167.28515625 C-91.18881332 167.2837413 -92.1862204 167.28232635 -93.21385193 167.28086853 C-96.41343124 167.27525114 -99.61294169 167.26269571 -102.8125 167.25 C-104.97591045 167.24498724 -107.13932199 167.24042395 -109.30273438 167.23632812 C-114.61851325 167.22527607 -119.93425171 167.20852104 -125.25 167.1875 C-121.09014151 159.35757436 -116.62184624 151.77597692 -111.9375 144.25 C-110.51228993 141.94706203 -109.0877133 139.64374474 -107.6640625 137.33984375 C-107.30004837 136.75126587 -106.93603424 136.16268799 -106.56098938 135.55627441 C-102.60996583 129.16282866 -98.70849094 122.73957903 -94.8125 116.3125 C-94.10189811 115.14086302 -93.39128609 113.96923219 -92.68066406 112.79760742 C-90.53628416 109.26140486 -88.39303415 105.72451824 -86.25 102.1875 C-83.39689185 97.47852437 -80.54310054 92.76996471 -77.6875 88.0625 C-77.33535431 87.48195862 -76.98320862 86.90141724 -76.62039185 86.30328369 C-70.8791859 76.84155001 -65.08939556 67.41029649 -59.27807617 57.99145508 C-55.79518813 52.34115057 -52.32875056 46.68152475 -48.890625 41.00390625 C-48.5232019 40.39735199 -48.15577881 39.79079773 -47.77722168 39.16586304 C-46.02710885 36.27563461 -44.27939878 33.38401249 -42.53515625 30.49023438 C-41.20894517 28.29708891 -39.85673709 26.11949268 -38.48144531 23.95678711 C-36.71793271 21.11173231 -35.30945179 18.19722686 -33.91699219 15.15454102 C-25.96815507 -1.09971022 -17.02606462 -1.28236702 0 0 Z M-9.25 44.1875 C-10.18131678 45.62998774 -11.05964051 47.1066742 -11.91796875 48.59375 C-12.75400635 50.03500244 -12.75400635 50.03500244 -13.60693359 51.50537109 C-14.21102051 52.55547363 -14.81510742 53.60557617 -15.4375 54.6875 C-16.70415372 56.87776228 -17.97108942 59.06786151 -19.23828125 61.2578125 C-19.89521973 62.39508789 -20.5521582 63.53236328 -21.22900391 64.70410156 C-23.23262939 68.16485406 -25.26093022 71.61053767 -27.29296875 75.0546875 C-27.93532471 76.14587891 -28.57768066 77.23707031 -29.23950195 78.36132812 C-30.48373751 80.47377362 -31.73091104 82.58449174 -32.98120117 84.69335938 C-33.8219519 86.12518555 -33.8219519 86.12518555 -34.6796875 87.5859375 C-35.17710449 88.42817871 -35.67452148 89.27041992 -36.18701172 90.13818359 C-37.40348227 92.09862882 -37.40348227 92.09862882 -37.25 94.1875 C-25.04 94.1875 -12.83 94.1875 -0.25 94.1875 C-1.76969287 81.63795889 -1.76969287 81.63795889 -3.7578125 69.1875 C-3.88815887 68.45547363 -4.01850525 67.72344727 -4.15280151 66.96923828 C-4.55633927 64.70794586 -4.96551137 62.44772142 -5.375 60.1875 C-5.65532918 58.62246408 -5.93527874 57.05736011 -6.21484375 55.4921875 C-6.8888807 51.72316403 -7.56795968 47.95508304 -8.25 44.1875 C-8.58 44.1875 -8.91 44.1875 -9.25 44.1875 Z " fill="#000000" transform="translate(1850.25,515.8125)"/>
<path d="M0 0 C13.86 0 27.72 0 42 0 C36.84563134 25.3561684 31.61866147 50.69027739 26.18798828 75.98852539 C25.98203033 76.95006027 25.77607239 77.91159515 25.56387329 78.90226746 C25.17984031 80.69453624 24.79465087 82.48655779 24.40805054 84.27827454 C21.8470132 96.23271648 20.06330214 107.06473066 26.25390625 118.26953125 C30.4099705 124.37339672 35.7777896 127.58982388 43 129 C56.11439648 129.92404962 65.92373697 127.6617443 76 119 C87.052111 107.77860065 89.04742397 90.90468173 92.08203125 76.171875 C92.54467864 73.96920446 93.00837482 71.76675397 93.47306824 69.56451416 C94.68520062 63.80628523 95.88318796 58.04520449 97.078125 52.28338623 C98.30322061 46.38893726 99.54184851 40.49733444 100.77929688 34.60546875 C103.19935634 23.07302832 105.60320274 11.53729749 108 0 C121.53 0 135.06 0 149 0 C148.33242587 6.67574135 147.54130617 12.91840435 146.12988281 19.41845703 C145.94269684 20.30129868 145.75551086 21.18414032 145.56265259 22.09373474 C144.94839541 24.98298535 144.32614009 27.87043872 143.703125 30.7578125 C143.26786514 32.79021687 142.83287231 34.82267845 142.39813232 36.85519409 C141.4872113 41.10739038 140.57214736 45.3586693 139.65429688 49.609375 C138.48790215 55.01334638 137.33321222 60.41974039 136.18187332 65.82693672 C135.28629365 70.02525481 134.38366348 74.22203462 133.47908783 78.4184227 C133.05105922 80.40869828 132.62529807 82.39946309 132.20200348 84.39075089 C127.68749793 105.59393058 122.9882145 126.48571275 108 143 C107.24976563 143.84304688 106.49953125 144.68609375 105.7265625 145.5546875 C95.94668545 155.9675663 84.5839295 161.91485739 71 166 C70.23429687 166.23460937 69.46859375 166.46921875 68.6796875 166.7109375 C47.97531682 172.14288266 24.84875018 168.85904711 6.15625 158.90234375 C-7.87105616 150.4477669 -14.92451079 137.42738834 -19 122 C-19.9936276 117.25337132 -20.21570525 112.58555991 -20.25 107.75 C-20.270625 107.069375 -20.29125 106.38875 -20.3125 105.6875 C-20.35053823 100.32411011 -19.62327193 95.13804501 -18.73022461 89.86083984 C-18.59774669 89.07391314 -18.46526876 88.28698643 -18.32877636 87.47621346 C-16.78821917 78.51409817 -14.9004654 69.63096415 -12.98828125 60.7421875 C-12.61107543 58.97436853 -12.23422602 57.20647348 -11.85771179 55.43850708 C-10.8798182 50.85127112 -9.89718368 46.26506419 -8.91345215 41.67907715 C-7.7266021 36.14116685 -6.54583189 30.60195724 -5.36400604 25.06297302 C-3.58058162 16.70766106 -1.78959095 8.35400402 0 0 Z " fill="#000000" transform="translate(1016,758)"/>
<path d="M0 0 C5.79945269 5.07613977 10.86961926 10.47935263 15 17 C13.68904505 19.95311939 12.3658972 21.82764609 9.91015625 23.91796875 C9.29567627 24.44608154 8.68119629 24.97419434 8.0480957 25.51831055 C7.39284912 26.06914307 6.73760254 26.61997559 6.0625 27.1875 C5.0573938 28.04371948 5.0573938 28.04371948 4.03198242 28.91723633 C2.02781118 30.61936006 0.01516065 32.31091057 -2 34 C-2.56654297 34.47824219 -3.13308594 34.95648437 -3.71679688 35.44921875 C-12.82719874 43.12943392 -12.82719874 43.12943392 -17 45 C-17.49628906 44.34773437 -17.99257813 43.69546875 -18.50390625 43.0234375 C-26.86505962 32.26658363 -35.61882077 24.53118012 -49.5078125 22.28125 C-63.62787583 20.68776323 -76.49141374 24.22556842 -87.6640625 33.12109375 C-98.72578465 43.29720975 -104.70183226 57.59124948 -105.375 72.5625 C-104.83526093 85.90877521 -99.53786918 96.88061137 -90 106 C-80.23803138 113.75951352 -68.16845754 115.79073009 -56 115 C-42.08224075 112.88090891 -31.39300969 106.20640622 -21 97 C-17.88250219 98.35408168 -16.08932815 99.76416493 -13.9765625 102.4140625 C-13.15671875 103.43306641 -13.15671875 103.43306641 -12.3203125 104.47265625 C-11.76085937 105.18292969 -11.20140625 105.89320313 -10.625 106.625 C-10.07328125 107.31207031 -9.5215625 107.99914062 -8.953125 108.70703125 C-7.84471022 110.09385068 -6.74471991 111.48744592 -5.65332031 112.88769531 C-4.52534672 114.32880984 -3.37785455 115.75480632 -2.21386719 117.16699219 C-1.65602539 117.86211914 -1.09818359 118.55724609 -0.5234375 119.2734375 C-0.01474121 119.89395996 0.49395508 120.51448242 1.01806641 121.15380859 C2 123 2 123 1.75830078 125.11669922 C-2.44044624 135.54462405 -19.60207848 142.74528315 -29.25 146.91015625 C-51.81994176 155.85477806 -77.52892325 158.00865317 -100.2421875 148.234375 C-108.33348343 144.52127164 -115.41826974 140.03902619 -122 134 C-122.75539063 133.33613281 -123.51078125 132.67226563 -124.2890625 131.98828125 C-139.35191794 117.98655481 -147.2448492 98.39135186 -148.12890625 78.03125 C-148.55978555 54.36161398 -141.00100768 31.60972659 -125 14 C-124.18917969 13.09636719 -123.37835937 12.19273437 -122.54296875 11.26171875 C-91.76247811 -21.32143606 -35.94092504 -28.03297447 0 0 Z " fill="#000000" transform="translate(788,532)"/>
<path d="M0 0 C0.95774291 0.00092179 1.91548582 0.00184359 2.90225124 0.00279331 C3.99746593 0.00141865 5.09268063 0.00004398 6.22108364 -0.00137234 C7.43308437 0.00222294 8.64508511 0.00581821 9.89381313 0.00952244 C11.79597843 0.0093034 11.79597843 0.0093034 13.73657131 0.00907993 C17.22401821 0.00879198 20.711431 0.01468838 24.19886994 0.02165389 C27.83973123 0.02788776 31.48059321 0.02849125 35.12145901 0.0296793 C42.02046371 0.03279252 48.91945264 0.04100578 55.81845039 0.05102879 C63.67080084 0.06219022 71.52315203 0.06770045 79.37550843 0.07272422 C95.53257953 0.0831884 111.68963475 0.10078766 127.84669399 0.12304783 C124.13575649 18.67773533 124.13575649 18.67773533 123.47657681 21.95800877 C123.06681811 24.01696682 122.6647086 26.07746695 122.27149868 28.13964939 C122.09779751 29.044249 121.92409634 29.94884861 121.74513149 30.88086033 C121.51962612 32.07799656 121.51962612 32.07799656 121.28956509 33.29931736 C120.84669399 35.12304783 120.84669399 35.12304783 119.84669399 36.12304783 C117.07730433 36.21822586 114.3329224 36.24859048 111.56324673 36.23657322 C110.26092602 36.23679226 110.26092602 36.23679226 108.9322958 36.23701572 C106.04826813 36.23631628 103.1643042 36.22852245 100.28028774 36.22070408 C98.28631532 36.21884001 96.29234245 36.21741605 94.29836941 36.21641636 C89.03923697 36.21259031 83.78013196 36.20275928 78.5210104 36.19171238 C73.15887225 36.18150013 67.79672968 36.17691914 62.43458462 36.17187595 C51.90527566 36.16113709 41.3759871 36.14405963 30.84669399 36.12304783 C30.62735195 37.21975803 30.62735195 37.21975803 30.40357876 38.338624 C28.55128384 47.60009861 26.69898891 56.86157322 24.84669399 66.12304783 C44.31669399 66.12304783 63.78669399 66.12304783 83.84669399 66.12304783 C78.84669399 92.12304783 78.84669399 92.12304783 76.84669399 101.12304783 C57.04669399 101.12304783 37.24669399 101.12304783 16.84669399 101.12304783 C16.18669399 105.41304783 15.52669399 109.70304783 14.84669399 114.12304783 C14.02345277 118.26411088 13.17659682 122.38895424 12.28028774 126.51367283 C12.04133282 127.62490513 11.80237789 128.73613743 11.55618191 129.88104343 C11.05635047 132.20056206 10.55462032 134.51967231 10.0510397 136.83837986 C9.27732392 140.40471448 8.5118519 143.97275354 7.74708462 147.54101658 C7.25863947 149.80284058 6.76972465 152.06456322 6.28028774 154.32617283 C5.93652348 155.93060246 5.93652348 155.93060246 5.58581448 157.5674448 C5.26526844 159.03597904 5.26526844 159.03597904 4.93824673 160.53418064 C4.65750553 161.83104801 4.65750553 161.83104801 4.3710928 163.15411472 C3.84669399 165.12304783 3.84669399 165.12304783 2.84669399 166.12304783 C-0.18308405 166.21176055 -3.18997623 166.23824133 -6.21971226 166.22070408 C-7.12833515 166.21928913 -8.03695805 166.21787418 -8.97311497 166.21641636 C-11.88737821 166.21079976 -14.80156582 166.19824448 -17.71580601 166.18554783 C-19.68650803 166.18053497 -21.65721124 166.17597169 -23.62791538 166.17187595 C-28.46974159 166.16082494 -33.31151096 166.14354921 -38.15330601 166.12304783 C-30.94179626 131.67416533 -23.65308381 97.24141477 -16.34150505 62.81364918 C-15.01786035 56.58095381 -13.69548103 50.34799636 -12.37617588 44.11438084 C-11.11296559 38.14626763 -9.84611204 32.17893918 -8.57651234 26.21218204 C-8.10069942 23.97296375 -7.62619017 21.73346803 -7.15301228 19.49369144 C-6.50139448 16.41040801 -5.84516366 13.32814241 -5.18772984 10.2460947 C-4.99508769 9.32925026 -4.80244555 8.41240582 -4.60396576 7.46777821 C-3.03928479 0.17367592 -3.03928479 0.17367592 0 0 Z " fill="#000000" transform="translate(1262.1533060073853,516.8769521713257)"/>
<path d="M0 0 C48.51 0 97.02 0 147 0 C146.38084192 5.57242269 145.77021812 10.60432138 144.58984375 16.00390625 C144.3487085 17.11838135 144.10757324 18.23285645 143.85913086 19.38110352 C143.55499268 20.76096436 143.25085449 22.1408252 142.9375 23.5625 C141.968125 27.996875 140.99875 32.43125 140 37 C122.51 37.33 105.02 37.66 87 38 C86.18732666 41.80644043 85.37465332 45.61288086 84.53735352 49.53466797 C81.85763403 62.08413005 79.17495114 74.63295706 76.49072361 87.18145561 C74.86269347 94.79269202 73.23568997 102.4041452 71.61108398 110.01611328 C70.19542361 116.6490699 68.77785661 123.28161562 67.35797828 129.91367066 C66.60591837 133.42676638 65.85482855 136.94006331 65.10601997 140.45385361 C64.27099179 144.37205508 63.43170902 148.28933319 62.59204102 152.20654297 C62.34316635 153.37754547 62.09429169 154.54854797 61.83787537 155.7550354 C61.60931854 156.81796814 61.38076172 157.88090088 61.14527893 158.9760437 C60.84800069 160.36702931 60.84800069 160.36702931 60.54471684 161.78611565 C60 164 60 164 59 166 C45.47 166 31.94 166 18 166 C19.34957367 157.90255801 20.79420718 149.91102591 22.52197266 141.89746094 C22.76610397 140.75454086 23.01023529 139.61162079 23.26176453 138.43406677 C24.05997087 134.70028313 24.86198263 130.96732828 25.6640625 127.234375 C26.22194661 124.62840719 26.77961709 122.02239456 27.33700562 119.4163208 C28.64870032 113.28574995 29.96314084 107.15577133 31.27860296 101.02600789 C32.92519856 93.35250586 34.56806696 85.6782065 36.2109375 78.00390625 C39.13707863 64.33517545 42.06879434 50.66764781 45 37 C27.51 37 10.02 37 -8 37 C-3 12 -3 12 0 0 Z " fill="#000000" transform="translate(1402,517)"/>
<path d="M0 0 C48.51 0 97.02 0 147 0 C146.38084192 5.57242269 145.77021812 10.60432138 144.58984375 16.00390625 C144.3487085 17.11838135 144.10757324 18.23285645 143.85913086 19.38110352 C143.55499268 20.76096436 143.25085449 22.1408252 142.9375 23.5625 C141.968125 27.996875 140.99875 32.43125 140 37 C122.51 37.33 105.02 37.66 87 38 C86.18732666 41.80644043 85.37465332 45.61288086 84.53735352 49.53466797 C81.85763403 62.08413005 79.17495114 74.63295706 76.49072361 87.18145561 C74.86269347 94.79269202 73.23568997 102.4041452 71.61108398 110.01611328 C70.19542361 116.6490699 68.77785661 123.28161562 67.35797828 129.91367066 C66.60591837 133.42676638 65.85482855 136.94006331 65.10601997 140.45385361 C64.27099179 144.37205508 63.43170902 148.28933319 62.59204102 152.20654297 C62.34316635 153.37754547 62.09429169 154.54854797 61.83787537 155.7550354 C61.60931854 156.81796814 61.38076172 157.88090088 61.14527893 158.9760437 C60.84800069 160.36702931 60.84800069 160.36702931 60.54471684 161.78611565 C60 164 60 164 59 166 C45.47 166 31.94 166 18 166 C19.34957367 157.90255801 20.79420718 149.91102591 22.52197266 141.89746094 C22.76610397 140.75454086 23.01023529 139.61162079 23.26176453 138.43406677 C24.05997087 134.70028313 24.86198263 130.96732828 25.6640625 127.234375 C26.22194661 124.62840719 26.77961709 122.02239456 27.33700562 119.4163208 C28.64870032 113.28574995 29.96314084 107.15577133 31.27860296 101.02600789 C32.92519856 93.35250586 34.56806696 85.6782065 36.2109375 78.00390625 C39.13707863 64.33517545 42.06879434 50.66764781 45 37 C27.51 37 10.02 37 -8 37 C-6.865625 31.451875 -5.73125 25.90375 -4.5625 20.1875 C-4.20615479 18.43977295 -3.84980957 16.6920459 -3.48266602 14.89135742 C-3.19822551 13.50436457 -2.91364821 12.11739975 -2.62890625 10.73046875 C-2.48287964 10.01169556 -2.33685303 9.29292236 -2.18640137 8.55236816 C-1.58556444 5.63306771 -0.943625 2.83087501 0 0 Z " fill="#000000" transform="translate(354,517)"/>
<path d="M0 0 C1.62466013 0.00138269 1.62466013 0.00138269 3.28214169 0.00279331 C5.13952465 0.00073132 5.13952465 0.00073132 7.0344305 -0.00137234 C8.41924214 0.00216727 9.80405354 0.00580209 11.18886471 0.00952244 C12.63726964 0.0098043 14.08567471 0.00964659 15.53407955 0.00907993 C19.47812183 0.00879193 23.42213397 0.01468903 27.36616921 0.02165389 C31.48349338 0.02788705 35.60081817 0.0284912 39.71814632 0.0296793 C47.52025732 0.03279273 55.32235437 0.04100627 63.12445921 0.05102879 C72.00460173 0.06218957 80.88474491 0.06770029 89.7648927 0.07272422 C108.03700261 0.08318887 126.30909953 0.10078853 144.58119869 0.12304783 C143.81539043 4.04071382 143.04260018 7.95697323 142.26869869 11.87304783 C142.05535885 12.96488377 141.842019 14.0567197 141.62221432 15.18164158 C141.29833736 16.8155283 141.29833736 16.8155283 140.96791744 18.48242283 C140.67727413 19.95920506 140.67727413 19.95920506 140.38075924 21.46582127 C139.23371588 26.71245011 137.88374874 31.91284764 136.58119869 37.12304783 C119.09119869 37.12304783 101.60119869 37.12304783 83.58119869 37.12304783 C82.92119869 41.41304783 82.26119869 45.70304783 81.58119869 50.12304783 C80.80807416 54.03174034 80.01123497 57.92389692 79.16689205 61.81665134 C78.81773487 63.44846096 78.81773487 63.44846096 78.46152401 65.11323643 C77.70162683 68.66025846 76.93641496 72.20610986 76.17104244 75.75195408 C75.63790091 78.23479267 75.10507421 80.71769888 74.57254696 83.20066929 C73.46106997 88.37946593 72.34731037 93.55776556 71.23134518 98.73559666 C69.65834606 106.0339955 68.09050781 113.33349612 66.52359474 120.63320363 C65.30294 126.31884162 64.08079335 132.00415905 62.85854244 137.68945408 C62.59848856 138.89926001 62.33843468 140.10906593 62.07050037 141.35553265 C61.33648779 144.76852283 60.6014868 148.18129845 59.8661108 151.59399509 C59.64843044 152.60647312 59.43075008 153.61895115 59.20647335 154.66211033 C59.00604931 155.59120716 58.80562527 156.52030399 58.59912777 157.47755527 C58.42566295 158.28290998 58.25219812 159.08826468 58.07347679 159.91802406 C57.60995831 161.99422705 57.09714831 164.05924934 56.58119869 166.12304783 C43.05119869 166.12304783 29.52119869 166.12304783 15.58119869 166.12304783 C16.7062201 154.87283378 16.7062201 154.87283378 17.64382076 150.49218845 C17.85410412 149.49687611 18.06438747 148.50156376 18.28104305 147.47609043 C18.5096452 146.42114887 18.73824734 145.36620731 18.97377682 144.27929783 C19.21615582 143.13988239 19.45853481 142.00046696 19.70825863 140.82652378 C20.50435972 137.0908781 21.30823079 133.35695377 22.11244869 129.62304783 C22.66952644 127.01904635 23.22622882 124.41496717 23.78249264 121.81079197 C24.94557236 116.36996903 26.11283924 110.93005815 27.28285885 105.49072361 C28.6357326 99.20115734 29.9828419 92.91037839 31.32671881 86.61888409 C32.62205007 80.55492107 33.92050406 74.49163151 35.2207098 68.42871189 C35.77319082 65.85154474 36.32500038 63.27423354 36.87613583 60.6967783 C37.64420722 57.10780045 38.41587154 53.51961476 39.18862057 49.93164158 C39.41722271 48.86050617 39.64582485 47.78937077 39.88135433 46.68577671 C40.09163769 45.71302296 40.30192104 44.7402692 40.51857662 43.73803806 C40.70071461 42.8900716 40.88285259 42.04210514 41.07050991 41.16844273 C41.58119869 39.12304783 41.58119869 39.12304783 42.58119869 37.12304783 C25.09119869 37.12304783 7.60119869 37.12304783 -10.41880131 37.12304783 C-9.46577408 29.49882997 -8.03972038 22.18229855 -6.41880131 14.68554783 C-6.14552006 13.39455173 -5.87223881 12.10355564 -5.59067631 10.77343845 C-5.32770756 9.54947361 -5.06473881 8.32550877 -4.79380131 7.06445408 C-4.55403568 5.94756199 -4.31427006 4.8306699 -4.06723881 3.67993259 C-3.17495207 0.16151428 -3.17495207 0.16151428 0 0 Z " fill="#000000" transform="translate(1182.4188013076782,757.8769521713257)"/>
<path d="M0 0 C13.53 0 27.06 0 41 0 C39.8749786 11.25021405 39.8749786 11.25021405 38.93737793 15.63085938 C38.72709457 16.62617172 38.51681122 17.62148407 38.30015564 18.6469574 C38.0715535 19.70189896 37.84295135 20.75684052 37.60742188 21.84375 C37.36504288 22.98316544 37.12266388 24.12258087 36.87294006 25.29652405 C36.07683897 29.03216973 35.2729679 32.76609405 34.46875 36.5 C33.91167225 39.10400148 33.35496987 41.70808066 32.79870605 44.31225586 C31.63562633 49.7530788 30.46835946 55.19298968 29.29833984 60.63232422 C27.9454661 66.92189049 26.5983568 73.21266944 25.25447989 79.50416374 C23.95914862 85.56812676 22.66069463 91.63141632 21.36048889 97.69433594 C20.80800787 100.27150309 20.25619832 102.84881429 19.70506287 105.42626953 C18.93699147 109.01524738 18.16532715 112.60343307 17.39257812 116.19140625 C17.04967491 117.79810936 17.04967491 117.79810936 16.69984436 119.43727112 C16.38441933 120.89640175 16.38441933 120.89640175 16.06262207 122.38500977 C15.88048409 123.23297623 15.6983461 124.08094269 15.51068878 124.9546051 C15 127 15 127 14 129 C42.05 129 70.1 129 99 129 C98 140 98 140 92 166 C50.09 166 8.18 166 -35 166 C-23.49707964 110.78598226 -23.49707964 110.78598226 -18.5546875 87.5 C-18.00840078 84.92302975 -17.46218096 82.34604541 -16.91604614 79.76904297 C-15.65977721 73.84186746 -14.4026884 67.91486622 -13.14524472 61.98793983 C-11.70541616 55.20112828 -10.26659341 48.41410359 -8.8278234 41.62706757 C-5.8862747 27.75115365 -2.9434336 13.8755142 0 0 Z " fill="#000000" transform="translate(882,758)"/>
<path d="M0 0 C13.53 0 27.06 0 41 0 C39.8750028 11.24997201 39.8750028 11.24997201 38.93978882 15.61207581 C38.72976227 16.60465897 38.51973572 17.59724213 38.30334473 18.61990356 C38.07481812 19.67289642 37.8462915 20.72588928 37.61083984 21.81079102 C37.36834503 22.94917923 37.12585022 24.08756744 36.87600708 25.26045227 C36.07610262 29.00938538 35.26854711 32.75662615 34.4609375 36.50390625 C33.89511582 39.14559474 33.33095404 41.78763697 32.76675415 44.42967224 C31.43010585 50.68437604 30.0879914 56.93789337 28.74382651 63.19098562 C27.09414428 70.86657287 25.45128799 78.54361787 23.80859375 86.22070312 C22.08647707 94.2682622 20.36355231 102.31564323 18.63568115 110.36196899 C16.28461559 121.31284882 13.93543789 132.26386311 11.63769531 143.22607422 C11.4675548 144.03622828 11.29741428 144.84638235 11.122118 145.68108654 C10.37510983 149.23933808 9.63153271 152.79822126 8.89559937 156.35877991 C8.65241974 157.52034103 8.40924011 158.68190216 8.15869141 159.87866211 C7.85434677 161.34848793 7.85434677 161.34848793 7.54385376 162.8480072 C7 165 7 165 6 166 C2.97043757 166.08870641 -0.0368671 166.11526582 -3.06640625 166.09765625 C-3.8713855 166.09664917 -4.67636475 166.09564209 -5.5057373 166.09460449 C-8.52469225 166.08935611 -11.54356737 166.07543064 -14.5625 166.0625 C-18.20824958 166.05055075 -21.85400271 166.03984805 -25.49975586 166.02905273 C-27.31098944 166.02353348 -29.12222297 166.01799604 -30.93345642 166.01243591 C-32.28897095 166.00829061 -33.64448547 166.0041453 -35 166 C-27.80638567 131.30979638 -20.49786604 96.64442621 -13.14518094 61.98763275 C-11.70536959 55.20092442 -10.26657173 48.41400132 -8.8278234 41.62706757 C-5.8862747 27.75115365 -2.9434336 13.8755142 0 0 Z " fill="#000000" transform="translate(1343,758)"/>
<path d="M0 0 C1.26706213 1.04209396 2.51763658 2.10459342 3.75 3.1875 C4.35585937 3.68894531 4.96171875 4.19039062 5.5859375 4.70703125 C13.61219398 11.90963258 18.09149642 22.49123939 19 33.109375 C19.46091686 45.15082798 16.35524836 55.78733901 8.75 65.1875 C8.27175781 65.80109375 7.79351563 66.4146875 7.30078125 67.046875 C1.63396037 73.49877182 -7.832137 78.42267506 -16.25 80.1875 C-29.60890244 81.00239305 -41.80168469 80.61515001 -52.58203125 71.6796875 C-53.13246094 71.18726563 -53.68289063 70.69484375 -54.25 70.1875 C-55.549375 69.0428125 -55.549375 69.0428125 -56.875 67.875 C-66.95279633 56.47117784 -70.12254761 45.29149149 -69.42041016 30.19726562 C-68.50326487 19.38073266 -62.5998374 10.01045947 -54.671875 2.86328125 C-38.87214899 -9.34764985 -16.82870627 -12.05734894 0 0 Z M-53.25 15.1875 C-59.09564355 23.38782901 -61.32698289 32.18502144 -60.25 42.1875 C-57.49860668 53.6776937 -51.18510912 61.90744775 -41.25 68.1875 C-33.29352642 72.38923324 -23.53769032 72.6021615 -14.96484375 70.30859375 C-5.31874244 66.61356379 2.36874747 60.69680947 6.75 51.1875 C10.41172261 40.95534769 10.57245817 32.40467203 6.75 22.1875 C1.50569925 12.03262673 -6.50492267 5.76919244 -17.25 2.1875 C-32.41996685 1.13713907 -42.63732306 3.44380953 -53.25 15.1875 Z " fill="#000000" transform="translate(2003.25,850.8125)"/>
<path d="M0 0 C4.33125 -0.061875 8.6625 -0.12375 13.125 -0.1875 C14.47996582 -0.21481201 15.83493164 -0.24212402 17.23095703 -0.27026367 C18.85300049 -0.28150269 18.85300049 -0.28150269 20.5078125 -0.29296875 C21.60754395 -0.3086792 22.70727539 -0.32438965 23.84033203 -0.34057617 C28.74791859 0.18840569 31.97841326 1.8955819 35.3125 5.5 C38.14112473 9.69055516 38.41496987 13.02036155 38 18 C36.96859148 20.78592411 35.79139344 22.53078201 34 25 C31.35546875 26.19921875 31.35546875 26.19921875 29 27 C29.30292969 27.56509277 29.60585937 28.13018555 29.91796875 28.71240234 C31.28292254 31.26434096 32.64152861 33.81960517 34 36.375 C34.71542969 37.70917969 34.71542969 37.70917969 35.4453125 39.0703125 C35.89648438 39.92109375 36.34765625 40.771875 36.8125 41.6484375 C37.23144531 42.43395996 37.65039062 43.21948242 38.08203125 44.02880859 C39 46 39 46 39 48 C36.03 48 33.06 48 30 48 C29.41734375 46.64003906 28.8346875 45.28007813 28.234375 43.87890625 C24.28334434 34.04719916 24.28334434 34.04719916 16.6640625 27.515625 C13.01836893 27.18714914 13.01836893 27.18714914 8 28 C8 34.6 8 41.2 8 48 C5.36 48 2.72 48 0 48 C0 32.16 0 16.32 0 0 Z M8 7 C8 11.95 8 16.9 8 22 C10.371875 22.061875 12.74375 22.12375 15.1875 22.1875 C15.92508545 22.21481201 16.6626709 22.24212402 17.42260742 22.27026367 C21.83935173 22.32573392 24.52119467 21.72835006 28 19 C30.27671738 16.25158089 30.27671738 16.25158089 29.8125 13.5 C28.9432251 10.82530801 28.1703451 9.73627608 26 8 C22.81175432 6.40587716 19.37103338 6.89825265 15.875 6.9375 C14.74384766 6.94426758 14.74384766 6.94426758 13.58984375 6.95117188 C11.72652873 6.96296501 9.86325445 6.98090058 8 7 Z " fill="#000000" transform="translate(1960,863)"/>
</svg>
